<svg width="132" height="24" viewBox="0 0 132 24" fill="none" xmlns="http://www.w3.org/2000/svg">
<path fill-rule="evenodd" clip-rule="evenodd" d="M109 2.838C109 2.35053 109.194 1.88303 109.538 1.53834C109.883 1.19365 110.351 1 110.838 1H129.16C129.402 0.999608 129.641 1.04687 129.864 1.13907C130.087 1.23127 130.29 1.36661 130.461 1.53734C130.632 1.70807 130.768 1.91083 130.86 2.13401C130.953 2.3572 131 2.59643 131 2.838V21.16C131 21.4016 130.953 21.6409 130.861 21.8642C130.768 22.0875 130.633 22.2904 130.462 22.4613C130.291 22.6322 130.088 22.7678 129.865 22.8602C129.642 22.9526 129.403 23.0001 129.161 23H110.838C110.597 23 110.357 22.9524 110.134 22.86C109.911 22.7676 109.709 22.6321 109.538 22.4613C109.367 22.2905 109.232 22.0878 109.14 21.8647C109.047 21.6416 109 21.4025 109 21.161V2.838ZM117.708 9.388H120.687V10.884C121.117 10.024 122.217 9.25 123.87 9.25C127.039 9.25 127.79 10.963 127.79 14.106V19.928H124.583V14.822C124.583 13.032 124.153 12.022 123.061 12.022C121.546 12.022 120.916 13.111 120.916 14.822V19.928H117.708V9.388ZM112.208 19.791H115.416V9.25H112.208V19.79V19.791ZM115.875 5.812C115.881 6.08668 115.832 6.35979 115.731 6.61532C115.63 6.87084 115.479 7.10364 115.287 7.30003C115.095 7.49643 114.866 7.65248 114.612 7.75901C114.359 7.86554 114.087 7.92042 113.813 7.92042C113.538 7.92042 113.266 7.86554 113.013 7.75901C112.759 7.65248 112.53 7.49643 112.338 7.30003C112.146 7.10364 111.995 6.87084 111.894 6.61532C111.793 6.35979 111.744 6.08668 111.75 5.812C111.762 5.27286 111.984 4.75979 112.37 4.38269C112.755 4.00558 113.273 3.79442 113.813 3.79442C114.352 3.79442 114.87 4.00558 115.255 4.38269C115.641 4.75979 115.863 5.27286 115.875 5.812Z" fill="white"/>
<path fill-rule="evenodd" clip-rule="evenodd" d="M7.465 1.066C8.638 1.012 9.012 1 12 1C14.988 1 15.362 1.013 16.534 1.066C17.706 1.119 18.506 1.306 19.206 1.577C19.939 1.854 20.604 2.287 21.154 2.847C21.714 3.396 22.146 4.06 22.422 4.794C22.694 5.494 22.88 6.294 22.934 7.464C22.988 8.639 23 9.013 23 12C23 14.988 22.987 15.362 22.934 16.535C22.881 17.705 22.694 18.505 22.422 19.205C22.146 19.9391 21.7133 20.6042 21.154 21.154C20.604 21.714 19.939 22.146 19.206 22.422C18.506 22.694 17.706 22.88 16.536 22.934C15.362 22.988 14.988 23 12 23C9.012 23 8.638 22.987 7.465 22.934C6.295 22.881 5.495 22.694 4.795 22.422C4.06092 22.146 3.39582 21.7133 2.846 21.154C2.28638 20.6047 1.85331 19.9399 1.577 19.206C1.306 18.506 1.12 17.706 1.066 16.536C1.012 15.361 1 14.987 1 12C1 9.012 1.013 8.638 1.066 7.466C1.119 6.294 1.306 5.494 1.577 4.794C1.85372 4.06008 2.28712 3.39531 2.847 2.846C3.39604 2.2865 4.06047 1.85344 4.794 1.577C5.494 1.306 6.294 1.12 7.464 1.066H7.465ZM16.445 3.046C15.285 2.993 14.937 2.982 12 2.982C9.063 2.982 8.715 2.993 7.555 3.046C6.482 3.095 5.9 3.274 5.512 3.425C4.999 3.625 4.632 3.862 4.247 4.247C3.88205 4.60205 3.60118 5.03428 3.425 5.512C3.274 5.9 3.095 6.482 3.046 7.555C2.993 8.715 2.982 9.063 2.982 12C2.982 14.937 2.993 15.285 3.046 16.445C3.095 17.518 3.274 18.1 3.425 18.488C3.601 18.965 3.882 19.398 4.247 19.753C4.602 20.118 5.035 20.399 5.512 20.575C5.9 20.726 6.482 20.905 7.555 20.954C8.715 21.007 9.062 21.018 12 21.018C14.938 21.018 15.285 21.007 16.445 20.954C17.518 20.905 18.1 20.726 18.488 20.575C19.001 20.375 19.368 20.138 19.753 19.753C20.118 19.398 20.399 18.965 20.575 18.488C20.726 18.1 20.905 17.518 20.954 16.445C21.007 15.285 21.018 14.937 21.018 12C21.018 9.063 21.007 8.715 20.954 7.555C20.905 6.482 20.726 5.9 20.575 5.512C20.375 4.999 20.138 4.632 19.753 4.247C19.3979 3.88207 18.9657 3.60121 18.488 3.425C18.1 3.274 17.518 3.095 16.445 3.046ZM10.595 15.391C11.3797 15.7176 12.2534 15.7617 13.0669 15.5157C13.8805 15.2697 14.5834 14.7489 15.0556 14.0422C15.5278 13.3356 15.7401 12.4869 15.656 11.6411C15.572 10.7953 15.197 10.005 14.595 9.405C14.2112 9.02148 13.7472 8.72781 13.2363 8.54515C12.7255 8.36248 12.1804 8.29536 11.6405 8.34862C11.1006 8.40187 10.5792 8.57418 10.1138 8.85313C9.64845 9.13208 9.25074 9.51074 8.9493 9.96185C8.64786 10.413 8.45019 10.9253 8.37052 11.462C8.29084 11.9986 8.33115 12.5463 8.48854 13.0655C8.64593 13.5847 8.91648 14.0626 9.28072 14.4647C9.64496 14.8668 10.0938 15.1832 10.595 15.391ZM8.002 8.002C8.52702 7.47697 9.15032 7.0605 9.8363 6.77636C10.5223 6.49222 11.2575 6.34597 12 6.34597C12.7425 6.34597 13.4777 6.49222 14.1637 6.77636C14.8497 7.0605 15.473 7.47697 15.998 8.002C16.523 8.52702 16.9395 9.15032 17.2236 9.8363C17.5078 10.5223 17.654 11.2575 17.654 12C17.654 12.7425 17.5078 13.4777 17.2236 14.1637C16.9395 14.8497 16.523 15.473 15.998 15.998C14.9377 17.0583 13.4995 17.654 12 17.654C10.5005 17.654 9.06234 17.0583 8.002 15.998C6.94166 14.9377 6.34597 13.4995 6.34597 12C6.34597 10.5005 6.94166 9.06234 8.002 8.002ZM18.908 7.188C19.0381 7.06527 19.1423 6.91768 19.2143 6.75397C19.2863 6.59027 19.3248 6.41377 19.3274 6.23493C19.33 6.05609 19.2967 5.87855 19.2295 5.71281C19.1622 5.54707 19.0624 5.39651 18.936 5.27004C18.8095 5.14357 18.6589 5.04376 18.4932 4.97652C18.3275 4.90928 18.1499 4.87598 17.9711 4.87858C17.7922 4.88119 17.6157 4.91965 17.452 4.9917C17.2883 5.06374 17.1407 5.1679 17.018 5.298C16.7793 5.55103 16.6486 5.88712 16.6537 6.23493C16.6588 6.58274 16.7992 6.91488 17.0452 7.16084C17.2911 7.40681 17.6233 7.54723 17.9711 7.5523C18.3189 7.55737 18.655 7.42669 18.908 7.188Z" fill="white"/>
<path d="M77.643 4.93695C76.808 5.30695 75.911 5.55696 74.968 5.66996C75.941 5.08775 76.669 4.17142 77.016 3.09195C76.1019 3.63494 75.1014 4.01715 74.058 4.22196C73.3564 3.47282 72.4271 2.97628 71.4143 2.80943C70.4016 2.64258 69.3621 2.81475 68.4572 3.29921C67.5524 3.78367 66.8328 4.55332 66.4102 5.48866C65.9875 6.424 65.8855 7.4727 66.12 8.47195C64.2677 8.37895 62.4556 7.8975 60.8014 7.05886C59.1472 6.22022 57.6879 5.04312 56.518 3.60396C56.118 4.29396 55.888 5.09396 55.888 5.94596C55.8876 6.71295 56.0764 7.4682 56.4379 8.14469C56.7993 8.82118 57.3222 9.39799 57.96 9.82396C57.2203 9.80042 56.4969 9.60054 55.85 9.24095V9.30095C55.8499 10.3767 56.222 11.4193 56.9032 12.252C57.5843 13.0846 58.5326 13.6559 59.587 13.869C58.9008 14.0547 58.1813 14.082 57.483 13.949C57.7805 14.8746 58.36 15.684 59.1404 16.2639C59.9208 16.8438 60.8629 17.1651 61.835 17.183C60.1848 18.4784 58.1469 19.181 56.049 19.178C55.6774 19.1781 55.3061 19.1564 54.937 19.113C57.0665 20.4821 59.5454 21.2088 62.077 21.206C70.647 21.206 75.332 14.108 75.332 7.95195C75.332 7.75196 75.327 7.54995 75.318 7.34995C76.2293 6.69093 77.0159 5.87485 77.641 4.93995L77.643 4.93695Z" fill="white"/>
</svg>
