<svg width="1240" height="278" viewBox="0 0 1240 278" fill="none" xmlns="http://www.w3.org/2000/svg">
<rect y="0.350586" width="1240" height="277.649" rx="30" fill="white"/>
<rect x="503.568" y="193.498" width="232.864" height="60.3586" rx="30.1793" fill="#1F4AA8"/>
<path d="M596.008 230.192C595.112 230.192 594.253 230.075 593.432 229.84C592.611 229.595 591.949 229.28 591.448 228.896L592.328 226.944C592.808 227.285 593.373 227.568 594.024 227.792C594.685 228.005 595.352 228.112 596.024 228.112C596.536 228.112 596.947 228.064 597.256 227.968C597.576 227.861 597.811 227.717 597.96 227.536C598.109 227.355 598.184 227.147 598.184 226.912C598.184 226.613 598.067 226.379 597.832 226.208C597.597 226.027 597.288 225.883 596.904 225.776C596.52 225.659 596.093 225.552 595.624 225.456C595.165 225.349 594.701 225.221 594.232 225.072C593.773 224.923 593.352 224.731 592.968 224.496C592.584 224.261 592.269 223.952 592.024 223.568C591.789 223.184 591.672 222.693 591.672 222.096C591.672 221.456 591.843 220.875 592.184 220.352C592.536 219.819 593.059 219.397 593.752 219.088C594.456 218.768 595.336 218.608 596.392 218.608C597.096 218.608 597.789 218.693 598.472 218.864C599.155 219.024 599.757 219.269 600.28 219.6L599.48 221.568C598.957 221.269 598.435 221.051 597.912 220.912C597.389 220.763 596.877 220.688 596.376 220.688C595.875 220.688 595.464 220.747 595.144 220.864C594.824 220.981 594.595 221.136 594.456 221.328C594.317 221.509 594.248 221.723 594.248 221.968C594.248 222.256 594.365 222.491 594.6 222.672C594.835 222.843 595.144 222.981 595.528 223.088C595.912 223.195 596.333 223.301 596.792 223.408C597.261 223.515 597.725 223.637 598.184 223.776C598.653 223.915 599.08 224.101 599.464 224.336C599.848 224.571 600.157 224.88 600.392 225.264C600.637 225.648 600.76 226.133 600.76 226.72C600.76 227.349 600.584 227.925 600.232 228.448C599.88 228.971 599.352 229.392 598.648 229.712C597.955 230.032 597.075 230.192 596.008 230.192ZM606.627 230.128C605.646 230.128 604.782 229.936 604.035 229.552C603.299 229.168 602.728 228.645 602.323 227.984C601.918 227.312 601.715 226.549 601.715 225.696C601.715 224.832 601.912 224.069 602.307 223.408C602.712 222.736 603.262 222.213 603.955 221.84C604.648 221.456 605.432 221.264 606.307 221.264C607.15 221.264 607.907 221.445 608.579 221.808C609.262 222.16 609.8 222.672 610.195 223.344C610.59 224.005 610.787 224.8 610.787 225.728C610.787 225.824 610.782 225.936 610.771 226.064C610.76 226.181 610.75 226.293 610.739 226.4H603.747V224.944H609.427L608.467 225.376C608.467 224.928 608.376 224.539 608.195 224.208C608.014 223.877 607.763 223.621 607.443 223.44C607.123 223.248 606.75 223.152 606.323 223.152C605.896 223.152 605.518 223.248 605.187 223.44C604.867 223.621 604.616 223.883 604.435 224.224C604.254 224.555 604.163 224.949 604.163 225.408V225.792C604.163 226.261 604.264 226.677 604.467 227.04C604.68 227.392 604.974 227.664 605.347 227.856C605.731 228.037 606.179 228.128 606.691 228.128C607.15 228.128 607.55 228.059 607.891 227.92C608.243 227.781 608.563 227.573 608.851 227.296L610.179 228.736C609.784 229.184 609.288 229.531 608.691 229.776C608.094 230.011 607.406 230.128 606.627 230.128ZM617.495 230V228.32L617.335 227.952V224.944C617.335 224.411 617.169 223.995 616.839 223.696C616.519 223.397 616.023 223.248 615.351 223.248C614.892 223.248 614.439 223.323 613.991 223.472C613.553 223.611 613.18 223.803 612.871 224.048L611.975 222.304C612.444 221.973 613.009 221.717 613.671 221.536C614.332 221.355 615.004 221.264 615.687 221.264C616.999 221.264 618.017 221.573 618.743 222.192C619.468 222.811 619.831 223.776 619.831 225.088V230H617.495ZM614.871 230.128C614.199 230.128 613.623 230.016 613.143 229.792C612.663 229.557 612.295 229.243 612.039 228.848C611.783 228.453 611.655 228.011 611.655 227.52C611.655 227.008 611.777 226.56 612.023 226.176C612.279 225.792 612.679 225.493 613.223 225.28C613.767 225.056 614.476 224.944 615.351 224.944H617.639V226.4H615.623C615.036 226.4 614.631 226.496 614.407 226.688C614.193 226.88 614.087 227.12 614.087 227.408C614.087 227.728 614.209 227.984 614.455 228.176C614.711 228.357 615.057 228.448 615.495 228.448C615.911 228.448 616.284 228.352 616.615 228.16C616.945 227.957 617.185 227.664 617.335 227.28L617.719 228.432C617.537 228.987 617.207 229.408 616.727 229.696C616.247 229.984 615.628 230.128 614.871 230.128ZM622.09 230V221.392H624.474V223.824L624.138 223.12C624.394 222.512 624.804 222.053 625.37 221.744C625.935 221.424 626.623 221.264 627.434 221.264V223.568C627.327 223.557 627.231 223.552 627.146 223.552C627.06 223.541 626.97 223.536 626.874 223.536C626.191 223.536 625.636 223.733 625.21 224.128C624.794 224.512 624.586 225.115 624.586 225.936V230H622.09ZM633.015 230.128C632.087 230.128 631.26 229.941 630.535 229.568C629.81 229.184 629.239 228.656 628.823 227.984C628.418 227.312 628.215 226.549 628.215 225.696C628.215 224.832 628.418 224.069 628.823 223.408C629.239 222.736 629.81 222.213 630.535 221.84C631.26 221.456 632.087 221.264 633.015 221.264C633.922 221.264 634.711 221.456 635.383 221.84C636.055 222.213 636.551 222.752 636.871 223.456L634.935 224.496C634.711 224.091 634.428 223.792 634.087 223.6C633.756 223.408 633.394 223.312 632.999 223.312C632.572 223.312 632.188 223.408 631.847 223.6C631.506 223.792 631.234 224.064 631.031 224.416C630.839 224.768 630.743 225.195 630.743 225.696C630.743 226.197 630.839 226.624 631.031 226.976C631.234 227.328 631.506 227.6 631.847 227.792C632.188 227.984 632.572 228.08 632.999 228.08C633.394 228.08 633.756 227.989 634.087 227.808C634.428 227.616 634.711 227.312 634.935 226.896L636.871 227.952C636.551 228.645 636.055 229.184 635.383 229.568C634.711 229.941 633.922 230.128 633.015 230.128ZM643.493 221.264C644.176 221.264 644.784 221.403 645.317 221.68C645.861 221.947 646.288 222.363 646.597 222.928C646.907 223.483 647.061 224.197 647.061 225.072V230H644.565V225.456C644.565 224.763 644.411 224.251 644.101 223.92C643.803 223.589 643.376 223.424 642.821 223.424C642.427 223.424 642.069 223.509 641.749 223.68C641.44 223.84 641.195 224.091 641.013 224.432C640.843 224.773 640.757 225.211 640.757 225.744V230H638.261V218.128H640.757V223.776L640.197 223.056C640.507 222.48 640.949 222.037 641.525 221.728C642.101 221.419 642.757 221.264 643.493 221.264Z" fill="white"/>
<path d="M49.5854 37.16C48.7214 37.16 47.884 37.0373 47.0734 36.792C46.2734 36.5467 45.6387 36.2213 45.1694 35.816L45.8894 34.2C46.348 34.5627 46.908 34.8613 47.5694 35.096C48.2414 35.32 48.9134 35.432 49.5854 35.432C50.4174 35.432 51.036 35.2987 51.4414 35.032C51.8574 34.7653 52.0654 34.4133 52.0654 33.976C52.0654 33.656 51.948 33.3947 51.7134 33.192C51.4894 32.9787 51.2014 32.8133 50.8494 32.696C50.4974 32.5787 50.0174 32.4453 49.4094 32.296C48.556 32.0933 47.8627 31.8907 47.3294 31.688C46.8067 31.4853 46.3534 31.1707 45.9694 30.744C45.596 30.3067 45.4094 29.72 45.4094 28.984C45.4094 28.3653 45.5747 27.8053 45.9054 27.304C46.2467 26.792 46.7534 26.3867 47.4254 26.088C48.108 25.7893 48.94 25.64 49.9214 25.64C50.604 25.64 51.276 25.7253 51.9374 25.896C52.5987 26.0667 53.1694 26.312 53.6494 26.632L52.9934 28.248C52.5027 27.96 51.9907 27.7413 51.4574 27.592C50.924 27.4427 50.4067 27.368 49.9054 27.368C49.084 27.368 48.4707 27.5067 48.0654 27.784C47.6707 28.0613 47.4734 28.4293 47.4734 28.888C47.4734 29.208 47.5854 29.4693 47.8094 29.672C48.044 29.8747 48.3374 30.0347 48.6894 30.152C49.0414 30.2693 49.5214 30.4027 50.1294 30.552C50.9614 30.744 51.644 30.9467 52.1774 31.16C52.7107 31.3627 53.164 31.6773 53.5374 32.104C53.9214 32.5307 54.1134 33.1067 54.1134 33.832C54.1134 34.4507 53.9427 35.0107 53.6014 35.512C53.2707 36.0133 52.764 36.4133 52.0814 36.712C51.3987 37.0107 50.5667 37.16 49.5854 37.16ZM61.1199 36.536C60.8852 36.728 60.5972 36.872 60.2559 36.968C59.9252 37.064 59.5732 37.112 59.1999 37.112C58.2612 37.112 57.5359 36.8667 57.0239 36.376C56.5119 35.8853 56.2559 35.1707 56.2559 34.232V30.12H54.8479V28.52H56.2559V26.568H58.2559V28.52H60.5439V30.12H58.2559V34.184C58.2559 34.6 58.3572 34.92 58.5599 35.144C58.7625 35.3573 59.0559 35.464 59.4399 35.464C59.8879 35.464 60.2612 35.3467 60.5599 35.112L61.1199 36.536ZM66.0291 28.36C67.2878 28.36 68.2478 28.664 68.9091 29.272C69.5811 29.8693 69.9171 30.776 69.9171 31.992V37H68.0291V35.96C67.7838 36.3333 67.4318 36.6213 66.9731 36.824C66.5251 37.016 65.9811 37.112 65.3411 37.112C64.7011 37.112 64.1411 37.0053 63.6611 36.792C63.1811 36.568 62.8078 36.264 62.5411 35.88C62.2851 35.4853 62.1571 35.0427 62.1571 34.552C62.1571 33.784 62.4398 33.1707 63.0051 32.712C63.5811 32.2427 64.4825 32.008 65.7091 32.008H67.9171V31.88C67.9171 31.2827 67.7358 30.824 67.3731 30.504C67.0211 30.184 66.4931 30.024 65.7891 30.024C65.3091 30.024 64.8345 30.0987 64.3651 30.248C63.9065 30.3973 63.5171 30.6053 63.1971 30.872L62.4131 29.416C62.8611 29.0747 63.3998 28.8133 64.0291 28.632C64.6585 28.4507 65.3251 28.36 66.0291 28.36ZM65.7571 35.656C66.2585 35.656 66.7011 35.544 67.0851 35.32C67.4798 35.0853 67.7571 34.7547 67.9171 34.328V33.336H65.8531C64.7011 33.336 64.1251 33.7147 64.1251 34.472C64.1251 34.8347 64.2691 35.1227 64.5571 35.336C64.8451 35.5493 65.2451 35.656 65.7571 35.656ZM80.3276 28.456L76.3276 37.688C75.9543 38.616 75.501 39.2667 74.9676 39.64C74.4343 40.024 73.789 40.216 73.0316 40.216C72.605 40.216 72.1836 40.1467 71.7676 40.008C71.3516 39.8693 71.0103 39.6773 70.7436 39.432L71.5436 37.96C71.7356 38.1413 71.9596 38.2853 72.2156 38.392C72.4823 38.4987 72.749 38.552 73.0156 38.552C73.3676 38.552 73.6556 38.4613 73.8796 38.28C74.1143 38.0987 74.3276 37.7947 74.5196 37.368L74.6636 37.032L70.9356 28.456H73.0156L75.7036 34.776L78.4076 28.456H80.3276ZM84.1083 37.112C83.4149 37.112 82.7376 37.0213 82.0763 36.84C81.4149 36.6587 80.8869 36.4293 80.4923 36.152L81.2603 34.632C81.6443 34.888 82.1029 35.096 82.6363 35.256C83.1803 35.4053 83.7136 35.48 84.2363 35.48C85.4309 35.48 86.0283 35.1653 86.0283 34.536C86.0283 34.2373 85.8736 34.0293 85.5643 33.912C85.2656 33.7947 84.7803 33.6827 84.1083 33.576C83.4043 33.4693 82.8283 33.3467 82.3803 33.208C81.9429 33.0693 81.5589 32.8293 81.2283 32.488C80.9083 32.136 80.7483 31.6507 80.7483 31.032C80.7483 30.2213 81.0843 29.576 81.7563 29.096C82.4389 28.6053 83.3563 28.36 84.5083 28.36C85.0949 28.36 85.6816 28.4293 86.2683 28.568C86.8549 28.696 87.3349 28.872 87.7083 29.096L86.9403 30.616C86.2149 30.1893 85.3989 29.976 84.4923 29.976C83.9056 29.976 83.4576 30.0667 83.1483 30.248C82.8496 30.4187 82.7003 30.648 82.7003 30.936C82.7003 31.256 82.8603 31.4853 83.1803 31.624C83.5109 31.752 84.0176 31.8747 84.7003 31.992C85.3829 32.0987 85.9429 32.2213 86.3803 32.36C86.8176 32.4987 87.1909 32.7333 87.5003 33.064C87.8203 33.3947 87.9803 33.864 87.9803 34.472C87.9803 35.272 87.6336 35.912 86.9403 36.392C86.2469 36.872 85.3029 37.112 84.1083 37.112Z" fill="#888AA2"/>
<path d="M246.102 37.16C244.971 37.16 243.947 36.9147 243.03 36.424C242.123 35.9227 241.409 35.2347 240.886 34.36C240.374 33.4853 240.118 32.4987 240.118 31.4C240.118 30.3013 240.379 29.3147 240.902 28.44C241.425 27.5653 242.139 26.8827 243.046 26.392C243.963 25.8907 244.987 25.64 246.118 25.64C247.035 25.64 247.873 25.8 248.63 26.12C249.387 26.44 250.027 26.904 250.55 27.512L249.206 28.776C248.395 27.9013 247.398 27.464 246.214 27.464C245.446 27.464 244.758 27.6347 244.15 27.976C243.542 28.3067 243.067 28.7707 242.726 29.368C242.385 29.9653 242.214 30.6427 242.214 31.4C242.214 32.1573 242.385 32.8347 242.726 33.432C243.067 34.0293 243.542 34.4987 244.15 34.84C244.758 35.1707 245.446 35.336 246.214 35.336C247.398 35.336 248.395 34.8933 249.206 34.008L250.55 35.288C250.027 35.896 249.382 36.36 248.614 36.68C247.857 37 247.019 37.16 246.102 37.16ZM255.537 28.36C256.796 28.36 257.756 28.664 258.417 29.272C259.089 29.8693 259.425 30.776 259.425 31.992V37H257.537V35.96C257.292 36.3333 256.94 36.6213 256.481 36.824C256.033 37.016 255.489 37.112 254.849 37.112C254.209 37.112 253.649 37.0053 253.169 36.792C252.689 36.568 252.316 36.264 252.049 35.88C251.793 35.4853 251.665 35.0427 251.665 34.552C251.665 33.784 251.948 33.1707 252.513 32.712C253.089 32.2427 253.99 32.008 255.217 32.008H257.425V31.88C257.425 31.2827 257.244 30.824 256.881 30.504C256.529 30.184 256.001 30.024 255.297 30.024C254.817 30.024 254.342 30.0987 253.873 30.248C253.414 30.3973 253.025 30.6053 252.705 30.872L251.921 29.416C252.369 29.0747 252.908 28.8133 253.537 28.632C254.166 28.4507 254.833 28.36 255.537 28.36ZM255.265 35.656C255.766 35.656 256.209 35.544 256.593 35.32C256.988 35.0853 257.265 34.7547 257.425 34.328V33.336H255.361C254.209 33.336 253.633 33.7147 253.633 34.472C253.633 34.8347 253.777 35.1227 254.065 35.336C254.353 35.5493 254.753 35.656 255.265 35.656ZM263.896 29.704C264.472 28.808 265.485 28.36 266.936 28.36V30.264C266.765 30.232 266.61 30.216 266.472 30.216C265.693 30.216 265.085 30.4453 264.648 30.904C264.21 31.352 263.992 32.0027 263.992 32.856V37H261.992V28.456H263.896V29.704ZM271.304 37.112C270.61 37.112 269.933 37.0213 269.272 36.84C268.61 36.6587 268.082 36.4293 267.688 36.152L268.456 34.632C268.84 34.888 269.298 35.096 269.832 35.256C270.376 35.4053 270.909 35.48 271.432 35.48C272.626 35.48 273.224 35.1653 273.224 34.536C273.224 34.2373 273.069 34.0293 272.76 33.912C272.461 33.7947 271.976 33.6827 271.304 33.576C270.6 33.4693 270.024 33.3467 269.576 33.208C269.138 33.0693 268.754 32.8293 268.424 32.488C268.104 32.136 267.944 31.6507 267.944 31.032C267.944 30.2213 268.28 29.576 268.952 29.096C269.634 28.6053 270.552 28.36 271.704 28.36C272.29 28.36 272.877 28.4293 273.464 28.568C274.05 28.696 274.53 28.872 274.904 29.096L274.136 30.616C273.41 30.1893 272.594 29.976 271.688 29.976C271.101 29.976 270.653 30.0667 270.344 30.248C270.045 30.4187 269.896 30.648 269.896 30.936C269.896 31.256 270.056 31.4853 270.376 31.624C270.706 31.752 271.213 31.8747 271.896 31.992C272.578 32.0987 273.138 32.2213 273.576 32.36C274.013 32.4987 274.386 32.7333 274.696 33.064C275.016 33.3947 275.176 33.864 275.176 34.472C275.176 35.272 274.829 35.912 274.136 36.392C273.442 36.872 272.498 37.112 271.304 37.112Z" fill="#888AA2"/>
<path d="M332.862 25.8C333.833 25.8 334.675 25.96 335.39 26.28C336.115 26.6 336.67 27.0587 337.054 27.656C337.438 28.2533 337.63 28.9627 337.63 29.784C337.63 30.5947 337.438 31.304 337.054 31.912C336.67 32.5093 336.115 32.968 335.39 33.288C334.675 33.608 333.833 33.768 332.862 33.768H330.334V37H328.254V25.8H332.862ZM332.766 32.008C333.673 32.008 334.361 31.816 334.83 31.432C335.299 31.048 335.534 30.4987 335.534 29.784C335.534 29.0693 335.299 28.52 334.83 28.136C334.361 27.752 333.673 27.56 332.766 27.56H330.334V32.008H332.766ZM342.701 28.36C343.96 28.36 344.92 28.664 345.581 29.272C346.253 29.8693 346.589 30.776 346.589 31.992V37H344.701V35.96C344.456 36.3333 344.104 36.6213 343.645 36.824C343.197 37.016 342.653 37.112 342.013 37.112C341.373 37.112 340.813 37.0053 340.333 36.792C339.853 36.568 339.48 36.264 339.213 35.88C338.957 35.4853 338.829 35.0427 338.829 34.552C338.829 33.784 339.112 33.1707 339.677 32.712C340.253 32.2427 341.154 32.008 342.381 32.008H344.589V31.88C344.589 31.2827 344.408 30.824 344.045 30.504C343.693 30.184 343.165 30.024 342.461 30.024C341.981 30.024 341.506 30.0987 341.037 30.248C340.578 30.3973 340.189 30.6053 339.869 30.872L339.085 29.416C339.533 29.0747 340.072 28.8133 340.701 28.632C341.33 28.4507 341.997 28.36 342.701 28.36ZM342.429 35.656C342.93 35.656 343.373 35.544 343.757 35.32C344.152 35.0853 344.429 34.7547 344.589 34.328V33.336H342.525C341.373 33.336 340.797 33.7147 340.797 34.472C340.797 34.8347 340.941 35.1227 341.229 35.336C341.517 35.5493 341.917 35.656 342.429 35.656ZM353.154 37.112C352.269 37.112 351.474 36.9253 350.77 36.552C350.066 36.1787 349.517 35.6613 349.122 35C348.727 34.328 348.53 33.5707 348.53 32.728C348.53 31.8853 348.727 31.1333 349.122 30.472C349.517 29.8107 350.061 29.2933 350.754 28.92C351.458 28.5467 352.258 28.36 353.154 28.36C353.997 28.36 354.733 28.5307 355.362 28.872C356.002 29.2133 356.482 29.704 356.802 30.344L355.266 31.24C355.021 30.8453 354.711 30.552 354.338 30.36C353.975 30.1573 353.575 30.056 353.138 30.056C352.391 30.056 351.773 30.3013 351.282 30.792C350.791 31.272 350.546 31.9173 350.546 32.728C350.546 33.5387 350.786 34.1893 351.266 34.68C351.757 35.16 352.381 35.4 353.138 35.4C353.575 35.4 353.975 35.304 354.338 35.112C354.711 34.9093 355.021 34.6107 355.266 34.216L356.802 35.112C356.471 35.752 355.986 36.248 355.346 36.6C354.717 36.9413 353.986 37.112 353.154 37.112ZM361.941 33.336L360.453 34.744V37H358.453V25.128H360.453V32.296L364.597 28.456H366.997L363.429 32.04L367.333 37H364.901L361.941 33.336ZM371.732 28.36C372.991 28.36 373.951 28.664 374.612 29.272C375.284 29.8693 375.62 30.776 375.62 31.992V37H373.732V35.96C373.487 36.3333 373.135 36.6213 372.676 36.824C372.228 37.016 371.684 37.112 371.044 37.112C370.404 37.112 369.844 37.0053 369.364 36.792C368.884 36.568 368.511 36.264 368.244 35.88C367.988 35.4853 367.86 35.0427 367.86 34.552C367.86 33.784 368.143 33.1707 368.708 32.712C369.284 32.2427 370.186 32.008 371.412 32.008H373.62V31.88C373.62 31.2827 373.439 30.824 373.076 30.504C372.724 30.184 372.196 30.024 371.492 30.024C371.012 30.024 370.538 30.0987 370.068 30.248C369.61 30.3973 369.22 30.6053 368.9 30.872L368.116 29.416C368.564 29.0747 369.103 28.8133 369.732 28.632C370.362 28.4507 371.028 28.36 371.732 28.36ZM371.46 35.656C371.962 35.656 372.404 35.544 372.788 35.32C373.183 35.0853 373.46 34.7547 373.62 34.328V33.336H371.556C370.404 33.336 369.828 33.7147 369.828 34.472C369.828 34.8347 369.972 35.1227 370.26 35.336C370.548 35.5493 370.948 35.656 371.46 35.656ZM386.745 28.456V35.704C386.745 38.712 385.209 40.216 382.137 40.216C381.316 40.216 380.537 40.1093 379.801 39.896C379.065 39.6933 378.457 39.3947 377.977 39L378.873 37.496C379.246 37.8053 379.716 38.0507 380.281 38.232C380.857 38.424 381.438 38.52 382.025 38.52C382.964 38.52 383.652 38.3067 384.089 37.88C384.526 37.4533 384.745 36.8027 384.745 35.928V35.48C384.404 35.8533 383.988 36.136 383.497 36.328C383.006 36.52 382.468 36.616 381.881 36.616C381.07 36.616 380.334 36.4453 379.673 36.104C379.022 35.752 378.505 35.2613 378.121 34.632C377.748 34.0027 377.561 33.2827 377.561 32.472C377.561 31.6613 377.748 30.9467 378.121 30.328C378.505 29.6987 379.022 29.2133 379.673 28.872C380.334 28.5307 381.07 28.36 381.881 28.36C382.5 28.36 383.06 28.4613 383.561 28.664C384.073 28.8667 384.5 29.176 384.841 29.592V28.456H386.745ZM382.185 34.92C382.942 34.92 383.561 34.696 384.041 34.248C384.532 33.7893 384.777 33.1973 384.777 32.472C384.777 31.7573 384.532 31.176 384.041 30.728C383.561 30.28 382.942 30.056 382.185 30.056C381.417 30.056 380.788 30.28 380.297 30.728C379.817 31.176 379.577 31.7573 379.577 32.472C379.577 33.1973 379.817 33.7893 380.297 34.248C380.788 34.696 381.417 34.92 382.185 34.92ZM397.407 32.776C397.407 32.9147 397.396 33.112 397.375 33.368H390.671C390.788 33.9973 391.092 34.4987 391.583 34.872C392.084 35.2347 392.703 35.416 393.439 35.416C394.377 35.416 395.151 35.1067 395.759 34.488L396.831 35.72C396.447 36.1787 395.961 36.5253 395.375 36.76C394.788 36.9947 394.127 37.112 393.391 37.112C392.452 37.112 391.625 36.9253 390.911 36.552C390.196 36.1787 389.641 35.6613 389.247 35C388.863 34.328 388.671 33.5707 388.671 32.728C388.671 31.896 388.857 31.1493 389.231 30.488C389.615 29.816 390.143 29.2933 390.815 28.92C391.487 28.5467 392.244 28.36 393.087 28.36C393.919 28.36 394.66 28.5467 395.311 28.92C395.972 29.2827 396.484 29.8 396.847 30.472C397.22 31.1333 397.407 31.9013 397.407 32.776ZM393.087 29.96C392.447 29.96 391.903 30.152 391.455 30.536C391.017 30.9093 390.751 31.4107 390.655 32.04H395.503C395.417 31.4213 395.156 30.92 394.719 30.536C394.281 30.152 393.737 29.96 393.087 29.96ZM401.968 37.112C401.274 37.112 400.597 37.0213 399.936 36.84C399.274 36.6587 398.746 36.4293 398.352 36.152L399.12 34.632C399.504 34.888 399.962 35.096 400.496 35.256C401.04 35.4053 401.573 35.48 402.096 35.48C403.29 35.48 403.888 35.1653 403.888 34.536C403.888 34.2373 403.733 34.0293 403.424 33.912C403.125 33.7947 402.64 33.6827 401.968 33.576C401.264 33.4693 400.688 33.3467 400.24 33.208C399.802 33.0693 399.418 32.8293 399.088 32.488C398.768 32.136 398.608 31.6507 398.608 31.032C398.608 30.2213 398.944 29.576 399.616 29.096C400.298 28.6053 401.216 28.36 402.368 28.36C402.954 28.36 403.541 28.4293 404.128 28.568C404.714 28.696 405.194 28.872 405.568 29.096L404.8 30.616C404.074 30.1893 403.258 29.976 402.352 29.976C401.765 29.976 401.317 30.0667 401.008 30.248C400.709 30.4187 400.56 30.648 400.56 30.936C400.56 31.256 400.72 31.4853 401.04 31.624C401.37 31.752 401.877 31.8747 402.56 31.992C403.242 32.0987 403.802 32.2213 404.24 32.36C404.677 32.4987 405.05 32.7333 405.36 33.064C405.68 33.3947 405.84 33.864 405.84 34.472C405.84 35.272 405.493 35.912 404.8 36.392C404.106 36.872 403.162 37.112 401.968 37.112Z" fill="#888AA2"/>
<path d="M462.51 27.56H458.798V25.8H468.302V27.56H464.59V37H462.51V27.56ZM474.519 28.36C475.597 28.36 476.461 28.6747 477.111 29.304C477.762 29.9333 478.087 30.8667 478.087 32.104V37H476.087V32.36C476.087 31.6133 475.911 31.0533 475.559 30.68C475.207 30.296 474.706 30.104 474.055 30.104C473.319 30.104 472.738 30.328 472.311 30.776C471.885 31.2133 471.671 31.848 471.671 32.68V37H469.671V25.128H471.671V29.448C472.002 29.096 472.407 28.8293 472.887 28.648C473.378 28.456 473.922 28.36 474.519 28.36ZM480.625 28.456H482.625V37H480.625V28.456ZM481.633 27.048C481.27 27.048 480.966 26.936 480.721 26.712C480.475 26.4773 480.353 26.1893 480.353 25.848C480.353 25.5067 480.475 25.224 480.721 25C480.966 24.7653 481.27 24.648 481.633 24.648C481.995 24.648 482.299 24.76 482.545 24.984C482.79 25.1973 482.913 25.4693 482.913 25.8C482.913 26.152 482.79 26.4507 482.545 26.696C482.31 26.9307 482.006 27.048 481.633 27.048ZM490.098 28.36C491.175 28.36 492.039 28.6747 492.69 29.304C493.34 29.9333 493.666 30.8667 493.666 32.104V37H491.666V32.36C491.666 31.6133 491.49 31.0533 491.138 30.68C490.786 30.296 490.284 30.104 489.634 30.104C488.898 30.104 488.316 30.328 487.89 30.776C487.463 31.2133 487.25 31.848 487.25 32.68V37H485.25V28.456H487.154V29.56C487.484 29.1653 487.9 28.8667 488.402 28.664C488.903 28.4613 489.468 28.36 490.098 28.36ZM504.761 28.456V35.704C504.761 38.712 503.225 40.216 500.153 40.216C499.331 40.216 498.553 40.1093 497.817 39.896C497.081 39.6933 496.473 39.3947 495.993 39L496.889 37.496C497.262 37.8053 497.731 38.0507 498.297 38.232C498.873 38.424 499.454 38.52 500.041 38.52C500.979 38.52 501.667 38.3067 502.105 37.88C502.542 37.4533 502.761 36.8027 502.761 35.928V35.48C502.419 35.8533 502.003 36.136 501.513 36.328C501.022 36.52 500.483 36.616 499.897 36.616C499.086 36.616 498.35 36.4453 497.689 36.104C497.038 35.752 496.521 35.2613 496.137 34.632C495.763 34.0027 495.577 33.2827 495.577 32.472C495.577 31.6613 495.763 30.9467 496.137 30.328C496.521 29.6987 497.038 29.2133 497.689 28.872C498.35 28.5307 499.086 28.36 499.897 28.36C500.515 28.36 501.075 28.4613 501.577 28.664C502.089 28.8667 502.515 29.176 502.857 29.592V28.456H504.761ZM500.201 34.92C500.958 34.92 501.577 34.696 502.057 34.248C502.547 33.7893 502.793 33.1973 502.793 32.472C502.793 31.7573 502.547 31.176 502.057 30.728C501.577 30.28 500.958 30.056 500.201 30.056C499.433 30.056 498.803 30.28 498.313 30.728C497.833 31.176 497.593 31.7573 497.593 32.472C497.593 33.1973 497.833 33.7893 498.313 34.248C498.803 34.696 499.433 34.92 500.201 34.92ZM510.03 37.112C509.337 37.112 508.659 37.0213 507.998 36.84C507.337 36.6587 506.809 36.4293 506.414 36.152L507.182 34.632C507.566 34.888 508.025 35.096 508.558 35.256C509.102 35.4053 509.635 35.48 510.158 35.48C511.353 35.48 511.95 35.1653 511.95 34.536C511.95 34.2373 511.795 34.0293 511.486 33.912C511.187 33.7947 510.702 33.6827 510.03 33.576C509.326 33.4693 508.75 33.3467 508.302 33.208C507.865 33.0693 507.481 32.8293 507.15 32.488C506.83 32.136 506.67 31.6507 506.67 31.032C506.67 30.2213 507.006 29.576 507.678 29.096C508.361 28.6053 509.278 28.36 510.43 28.36C511.017 28.36 511.603 28.4293 512.19 28.568C512.777 28.696 513.257 28.872 513.63 29.096L512.862 30.616C512.137 30.1893 511.321 29.976 510.414 29.976C509.827 29.976 509.379 30.0667 509.07 30.248C508.771 30.4187 508.622 30.648 508.622 30.936C508.622 31.256 508.782 31.4853 509.102 31.624C509.433 31.752 509.939 31.8747 510.622 31.992C511.305 32.0987 511.865 32.2213 512.302 32.36C512.739 32.4987 513.113 32.7333 513.422 33.064C513.742 33.3947 513.902 33.864 513.902 34.472C513.902 35.272 513.555 35.912 512.862 36.392C512.169 36.872 511.225 37.112 510.03 37.112ZM525.182 36.536C524.948 36.728 524.66 36.872 524.318 36.968C523.988 37.064 523.636 37.112 523.262 37.112C522.324 37.112 521.598 36.8667 521.086 36.376C520.574 35.8853 520.318 35.1707 520.318 34.232V30.12H518.91V28.52H520.318V26.568H522.318V28.52H524.606V30.12H522.318V34.184C522.318 34.6 522.42 34.92 522.622 35.144C522.825 35.3573 523.118 35.464 523.502 35.464C523.95 35.464 524.324 35.3467 524.622 35.112L525.182 36.536ZM530.386 37.112C529.522 37.112 528.744 36.9253 528.05 36.552C527.357 36.1787 526.813 35.6613 526.418 35C526.034 34.328 525.842 33.5707 525.842 32.728C525.842 31.8853 526.034 31.1333 526.418 30.472C526.813 29.8107 527.357 29.2933 528.05 28.92C528.744 28.5467 529.522 28.36 530.386 28.36C531.261 28.36 532.045 28.5467 532.738 28.92C533.432 29.2933 533.97 29.8107 534.354 30.472C534.749 31.1333 534.946 31.8853 534.946 32.728C534.946 33.5707 534.749 34.328 534.354 35C533.97 35.6613 533.432 36.1787 532.738 36.552C532.045 36.9253 531.261 37.112 530.386 37.112ZM530.386 35.4C531.122 35.4 531.73 35.1547 532.21 34.664C532.69 34.1733 532.93 33.528 532.93 32.728C532.93 31.928 532.69 31.2827 532.21 30.792C531.73 30.3013 531.122 30.056 530.386 30.056C529.65 30.056 529.042 30.3013 528.562 30.792C528.093 31.2827 527.858 31.928 527.858 32.728C527.858 33.528 528.093 34.1733 528.562 34.664C529.042 35.1547 529.65 35.4 530.386 35.4ZM549.649 25.128V37H547.729V35.896C547.398 36.3013 546.987 36.6053 546.497 36.808C546.017 37.0107 545.483 37.112 544.897 37.112C544.075 37.112 543.334 36.9307 542.673 36.568C542.022 36.2053 541.51 35.6933 541.137 35.032C540.763 34.36 540.577 33.592 540.577 32.728C540.577 31.864 540.763 31.1013 541.137 30.44C541.51 29.7787 542.022 29.2667 542.673 28.904C543.334 28.5413 544.075 28.36 544.897 28.36C545.462 28.36 545.979 28.456 546.449 28.648C546.918 28.84 547.318 29.128 547.649 29.512V25.128H549.649ZM545.137 35.4C545.617 35.4 546.049 35.2933 546.433 35.08C546.817 34.856 547.121 34.5413 547.345 34.136C547.569 33.7307 547.681 33.2613 547.681 32.728C547.681 32.1947 547.569 31.7253 547.345 31.32C547.121 30.9147 546.817 30.6053 546.433 30.392C546.049 30.168 545.617 30.056 545.137 30.056C544.657 30.056 544.225 30.168 543.841 30.392C543.457 30.6053 543.153 30.9147 542.929 31.32C542.705 31.7253 542.593 32.1947 542.593 32.728C542.593 33.2613 542.705 33.7307 542.929 34.136C543.153 34.5413 543.457 34.856 543.841 35.08C544.225 35.2933 544.657 35.4 545.137 35.4ZM556.105 37.112C555.241 37.112 554.462 36.9253 553.769 36.552C553.076 36.1787 552.532 35.6613 552.137 35C551.753 34.328 551.561 33.5707 551.561 32.728C551.561 31.8853 551.753 31.1333 552.137 30.472C552.532 29.8107 553.076 29.2933 553.769 28.92C554.462 28.5467 555.241 28.36 556.105 28.36C556.98 28.36 557.764 28.5467 558.457 28.92C559.15 29.2933 559.689 29.8107 560.073 30.472C560.468 31.1333 560.665 31.8853 560.665 32.728C560.665 33.5707 560.468 34.328 560.073 35C559.689 35.6613 559.15 36.1787 558.457 36.552C557.764 36.9253 556.98 37.112 556.105 37.112ZM556.105 35.4C556.841 35.4 557.449 35.1547 557.929 34.664C558.409 34.1733 558.649 33.528 558.649 32.728C558.649 31.928 558.409 31.2827 557.929 30.792C557.449 30.3013 556.841 30.056 556.105 30.056C555.369 30.056 554.761 30.3013 554.281 30.792C553.812 31.2827 553.577 31.928 553.577 32.728C553.577 33.528 553.812 34.1733 554.281 34.664C554.761 35.1547 555.369 35.4 556.105 35.4Z" fill="#888AA2"/>
<path d="M143.443 27.544V30.952H148.851V32.712H143.443V37H141.363V25.8H149.539V27.544H143.443ZM151.359 25.128H153.359V37H151.359V25.128ZM155.984 28.456H157.984V37H155.984V28.456ZM156.992 27.048C156.629 27.048 156.325 26.936 156.08 26.712C155.835 26.4773 155.712 26.1893 155.712 25.848C155.712 25.5067 155.835 25.224 156.08 25C156.325 24.7653 156.629 24.648 156.992 24.648C157.355 24.648 157.659 24.76 157.904 24.984C158.149 25.1973 158.272 25.4693 158.272 25.8C158.272 26.152 158.149 26.4507 157.904 26.696C157.669 26.9307 157.365 27.048 156.992 27.048ZM169.089 28.456V35.704C169.089 38.712 167.553 40.216 164.481 40.216C163.66 40.216 162.881 40.1093 162.145 39.896C161.409 39.6933 160.801 39.3947 160.321 39L161.217 37.496C161.59 37.8053 162.06 38.0507 162.625 38.232C163.201 38.424 163.782 38.52 164.369 38.52C165.308 38.52 165.996 38.3067 166.433 37.88C166.87 37.4533 167.089 36.8027 167.089 35.928V35.48C166.748 35.8533 166.332 36.136 165.841 36.328C165.35 36.52 164.812 36.616 164.225 36.616C163.414 36.616 162.678 36.4453 162.017 36.104C161.366 35.752 160.849 35.2613 160.465 34.632C160.092 34.0027 159.905 33.2827 159.905 32.472C159.905 31.6613 160.092 30.9467 160.465 30.328C160.849 29.6987 161.366 29.2133 162.017 28.872C162.678 28.5307 163.414 28.36 164.225 28.36C164.844 28.36 165.404 28.4613 165.905 28.664C166.417 28.8667 166.844 29.176 167.185 29.592V28.456H169.089ZM164.529 34.92C165.286 34.92 165.905 34.696 166.385 34.248C166.876 33.7893 167.121 33.1973 167.121 32.472C167.121 31.7573 166.876 31.176 166.385 30.728C165.905 30.28 165.286 30.056 164.529 30.056C163.761 30.056 163.132 30.28 162.641 30.728C162.161 31.176 161.921 31.7573 161.921 32.472C161.921 33.1973 162.161 33.7893 162.641 34.248C163.132 34.696 163.761 34.92 164.529 34.92ZM176.566 28.36C177.644 28.36 178.508 28.6747 179.158 29.304C179.809 29.9333 180.134 30.8667 180.134 32.104V37H178.134V32.36C178.134 31.6133 177.958 31.0533 177.606 30.68C177.254 30.296 176.753 30.104 176.102 30.104C175.366 30.104 174.785 30.328 174.358 30.776C173.932 31.2133 173.718 31.848 173.718 32.68V37H171.718V25.128H173.718V29.448C174.049 29.096 174.454 28.8293 174.934 28.648C175.425 28.456 175.969 28.36 176.566 28.36ZM187.807 36.536C187.573 36.728 187.285 36.872 186.943 36.968C186.613 37.064 186.261 37.112 185.887 37.112C184.949 37.112 184.223 36.8667 183.711 36.376C183.199 35.8853 182.943 35.1707 182.943 34.232V30.12H181.535V28.52H182.943V26.568H184.943V28.52H187.231V30.12H184.943V34.184C184.943 34.6 185.045 34.92 185.247 35.144C185.45 35.3573 185.743 35.464 186.127 35.464C186.575 35.464 186.949 35.3467 187.247 35.112L187.807 36.536Z" fill="#1F4AA8"/>
<circle cx="55.662" cy="96.8526" r="10.5" stroke="#1F4AA8" stroke-width="3"/>
<path d="M89.72 101.949C88.6107 101.949 87.6027 101.703 86.696 101.213C85.8 100.711 85.096 100.029 84.584 99.1646C84.0827 98.3006 83.832 97.3299 83.832 96.2526C83.832 95.1753 84.0827 94.2046 84.584 93.3406C85.096 92.4766 85.8 91.7993 86.696 91.3086C87.6027 90.8073 88.6107 90.5566 89.72 90.5566C90.8293 90.5566 91.8267 90.8019 92.712 91.2926C93.608 91.7833 94.312 92.4659 94.824 93.3406C95.336 94.2046 95.592 95.1753 95.592 96.2526C95.592 97.3299 95.336 98.3059 94.824 99.1806C94.312 100.045 93.608 100.722 92.712 101.213C91.8267 101.703 90.8293 101.949 89.72 101.949ZM89.72 100.893C90.6053 100.893 91.4053 100.695 92.12 100.301C92.8347 99.8953 93.3947 99.3406 93.8 98.6366C94.2053 97.9219 94.408 97.1273 94.408 96.2526C94.408 95.3779 94.2053 94.5886 93.8 93.8846C93.3947 93.1699 92.8347 92.6153 92.12 92.2206C91.4053 91.8153 90.6053 91.6126 89.72 91.6126C88.8347 91.6126 88.0293 91.8153 87.304 92.2206C86.5893 92.6153 86.024 93.1699 85.608 93.8846C85.2027 94.5886 85 95.3779 85 96.2526C85 97.1273 85.2027 97.9219 85.608 98.6366C86.024 99.3406 86.5893 99.8953 87.304 100.301C88.0293 100.695 88.8347 100.893 89.72 100.893ZM102.294 93.3726C103.35 93.3726 104.187 93.6819 104.806 94.3006C105.435 94.9086 105.75 95.7993 105.75 96.9726V101.853H104.614V97.0846C104.614 96.2099 104.395 95.5433 103.958 95.0846C103.521 94.6259 102.897 94.3966 102.086 94.3966C101.179 94.3966 100.459 94.6686 99.9259 95.2126C99.4032 95.7459 99.1419 96.4873 99.1419 97.4366V101.853H98.0059V93.4366H99.0939V94.9886C99.4032 94.4766 99.8299 94.0819 100.374 93.8046C100.929 93.5166 101.569 93.3726 102.294 93.3726ZM116.193 97.9966H109.153C109.217 98.8713 109.553 99.5806 110.161 100.125C110.769 100.658 111.537 100.925 112.465 100.925C112.988 100.925 113.468 100.834 113.905 100.653C114.343 100.461 114.721 100.183 115.041 99.8206L115.681 100.557C115.308 101.005 114.839 101.346 114.273 101.581C113.719 101.815 113.105 101.933 112.433 101.933C111.569 101.933 110.801 101.751 110.129 101.389C109.468 101.015 108.951 100.503 108.577 99.8526C108.204 99.2019 108.017 98.4659 108.017 97.6446C108.017 96.8233 108.193 96.0873 108.545 95.4366C108.908 94.7859 109.399 94.2793 110.017 93.9166C110.647 93.5539 111.351 93.3726 112.129 93.3726C112.908 93.3726 113.607 93.5539 114.225 93.9166C114.844 94.2793 115.329 94.7859 115.681 95.4366C116.033 96.0766 116.209 96.8126 116.209 97.6446L116.193 97.9966ZM112.129 94.3486C111.319 94.3486 110.636 94.6099 110.081 95.1326C109.537 95.6446 109.228 96.3166 109.153 97.1486H115.121C115.047 96.3166 114.732 95.6446 114.177 95.1326C113.633 94.6099 112.951 94.3486 112.129 94.3486ZM118.054 97.0206H122.246V98.0126H118.054V97.0206ZM136.952 93.4366L133.768 101.853H132.696L130.04 94.9566L127.384 101.853H126.312L123.144 93.4366H124.232L126.872 100.589L129.576 93.4366H130.552L133.24 100.589L135.912 93.4366H136.952ZM141.356 93.3726C142.455 93.3726 143.297 93.6499 143.884 94.2046C144.471 94.7486 144.764 95.5593 144.764 96.6366V101.853H143.676V100.541C143.42 100.978 143.041 101.319 142.54 101.565C142.049 101.81 141.463 101.933 140.78 101.933C139.841 101.933 139.095 101.709 138.54 101.261C137.985 100.813 137.708 100.221 137.708 99.4846C137.708 98.7699 137.964 98.1939 138.476 97.7566C138.999 97.3193 139.825 97.1006 140.956 97.1006H143.628V96.5886C143.628 95.8633 143.425 95.3139 143.02 94.9406C142.615 94.5566 142.023 94.3646 141.244 94.3646C140.711 94.3646 140.199 94.4553 139.708 94.6366C139.217 94.8073 138.796 95.0473 138.444 95.3566L137.932 94.5086C138.359 94.1459 138.871 93.8686 139.468 93.6766C140.065 93.4739 140.695 93.3726 141.356 93.3726ZM140.956 101.037C141.596 101.037 142.145 100.893 142.604 100.605C143.063 100.306 143.404 99.8793 143.628 99.3246V97.9486H140.988C139.548 97.9486 138.828 98.4499 138.828 99.4526C138.828 99.9433 139.015 100.333 139.388 100.621C139.761 100.898 140.284 101.037 140.956 101.037ZM154.765 93.4366L150.557 102.861C150.216 103.65 149.821 104.21 149.373 104.541C148.925 104.871 148.387 105.037 147.757 105.037C147.352 105.037 146.973 104.973 146.621 104.845C146.269 104.717 145.965 104.525 145.709 104.269L146.237 103.421C146.664 103.847 147.176 104.061 147.773 104.061C148.157 104.061 148.483 103.954 148.749 103.741C149.027 103.527 149.283 103.165 149.517 102.653L149.885 101.837L146.125 93.4366H147.309L150.477 100.589L153.645 93.4366H154.765Z" fill="black"/>
<circle cx="381.671" cy="96.8526" r="10.5" stroke="#1F4AA8" stroke-width="3"/>
<path d="M423.456 90.8V102H422.32V93.04L417.92 100.576H417.36L412.96 93.088V102H411.824V90.8H412.8L417.664 99.104L422.48 90.8H423.456ZM434.449 93.584V102H433.361V100.464C433.063 100.976 432.652 101.376 432.129 101.664C431.607 101.941 431.009 102.08 430.337 102.08C429.239 102.08 428.369 101.776 427.729 101.168C427.1 100.549 426.785 99.648 426.785 98.464V93.584H427.921V98.352C427.921 99.2373 428.14 99.9093 428.577 100.368C429.015 100.827 429.639 101.056 430.449 101.056C431.335 101.056 432.033 100.789 432.545 100.256C433.057 99.712 433.313 98.96 433.313 98V93.584H434.449ZM437.631 90.128H438.767V102H437.631V90.128ZM446.391 101.488C446.178 101.68 445.911 101.829 445.591 101.936C445.282 102.032 444.956 102.08 444.615 102.08C443.826 102.08 443.218 101.867 442.791 101.44C442.364 101.013 442.151 100.411 442.151 99.632V94.544H440.647V93.584H442.151V91.744H443.287V93.584H445.847V94.544H443.287V99.568C443.287 100.069 443.41 100.453 443.655 100.72C443.911 100.976 444.274 101.104 444.743 101.104C444.978 101.104 445.202 101.067 445.415 100.992C445.639 100.917 445.831 100.811 445.991 100.672L446.391 101.488ZM448.459 93.584H449.595V102H448.459V93.584ZM449.035 91.744C448.8 91.744 448.603 91.664 448.443 91.504C448.283 91.344 448.203 91.152 448.203 90.928C448.203 90.7147 448.283 90.528 448.443 90.368C448.603 90.208 448.8 90.128 449.035 90.128C449.27 90.128 449.467 90.208 449.627 90.368C449.787 90.5173 449.867 90.6987 449.867 90.912C449.867 91.1467 449.787 91.344 449.627 91.504C449.467 91.664 449.27 91.744 449.035 91.744ZM452.132 97.168H456.324V98.16H452.132V97.168ZM462.51 102.08C461.678 102.08 460.931 101.899 460.27 101.536C459.619 101.173 459.107 100.667 458.734 100.016C458.36 99.3547 458.174 98.6133 458.174 97.792C458.174 96.9707 458.36 96.2347 458.734 95.584C459.107 94.9333 459.619 94.4267 460.27 94.064C460.931 93.7013 461.678 93.52 462.51 93.52C463.235 93.52 463.88 93.664 464.446 93.952C465.022 94.2293 465.475 94.64 465.806 95.184L464.958 95.76C464.68 95.344 464.328 95.0347 463.902 94.832C463.475 94.6187 463.011 94.512 462.51 94.512C461.902 94.512 461.352 94.6507 460.862 94.928C460.382 95.1947 460.003 95.5787 459.726 96.08C459.459 96.5813 459.326 97.152 459.326 97.792C459.326 98.4427 459.459 99.0187 459.726 99.52C460.003 100.011 460.382 100.395 460.862 100.672C461.352 100.939 461.902 101.072 462.51 101.072C463.011 101.072 463.475 100.971 463.902 100.768C464.328 100.565 464.68 100.256 464.958 99.84L465.806 100.416C465.475 100.96 465.022 101.376 464.446 101.664C463.87 101.941 463.224 102.08 462.51 102.08ZM468.037 93.584H469.173V102H468.037V93.584ZM468.613 91.744C468.378 91.744 468.181 91.664 468.021 91.504C467.861 91.344 467.781 91.152 467.781 90.928C467.781 90.7147 467.861 90.528 468.021 90.368C468.181 90.208 468.378 90.128 468.613 90.128C468.848 90.128 469.045 90.208 469.205 90.368C469.365 90.5173 469.445 90.6987 469.445 90.912C469.445 91.1467 469.365 91.344 469.205 91.504C469.045 91.664 468.848 91.744 468.613 91.744ZM476.766 101.488C476.553 101.68 476.286 101.829 475.966 101.936C475.657 102.032 475.331 102.08 474.99 102.08C474.201 102.08 473.593 101.867 473.166 101.44C472.739 101.013 472.526 100.411 472.526 99.632V94.544H471.022V93.584H472.526V91.744H473.662V93.584H476.222V94.544H473.662V99.568C473.662 100.069 473.785 100.453 474.03 100.72C474.286 100.976 474.649 101.104 475.118 101.104C475.353 101.104 475.577 101.067 475.79 100.992C476.014 100.917 476.206 100.811 476.366 100.672L476.766 101.488ZM485.75 93.584L481.542 103.008C481.2 103.797 480.806 104.357 480.358 104.688C479.91 105.019 479.371 105.184 478.742 105.184C478.336 105.184 477.958 105.12 477.606 104.992C477.254 104.864 476.95 104.672 476.694 104.416L477.222 103.568C477.648 103.995 478.16 104.208 478.758 104.208C479.142 104.208 479.467 104.101 479.734 103.888C480.011 103.675 480.267 103.312 480.502 102.8L480.87 101.984L477.11 93.584H478.294L481.462 100.736L484.63 93.584H485.75Z" fill="black"/>
<circle cx="230" cy="97" r="10.5" stroke="#1F4AA8" stroke-width="3"/>
<circle cx="230" cy="97" r="6" fill="#1F4AA8"/>
<path d="M266.472 102L263.912 98.4C263.624 98.432 263.325 98.448 263.016 98.448H260.008V102H258.824V90.8H263.016C264.445 90.8 265.565 91.1413 266.376 91.824C267.187 92.5067 267.592 93.4453 267.592 94.64C267.592 95.5147 267.368 96.256 266.92 96.864C266.483 97.4613 265.853 97.8933 265.032 98.16L267.768 102H266.472ZM262.984 97.44C264.093 97.44 264.941 97.1947 265.528 96.704C266.115 96.2133 266.408 95.5253 266.408 94.64C266.408 93.7333 266.115 93.04 265.528 92.56C264.941 92.0693 264.093 91.824 262.984 91.824H260.008V97.44H262.984ZM277.475 98.144H270.435C270.499 99.0187 270.835 99.728 271.443 100.272C272.051 100.805 272.819 101.072 273.747 101.072C274.269 101.072 274.749 100.981 275.187 100.8C275.624 100.608 276.003 100.331 276.323 99.968L276.963 100.704C276.589 101.152 276.12 101.493 275.555 101.728C275 101.963 274.387 102.08 273.715 102.08C272.851 102.08 272.083 101.899 271.411 101.536C270.749 101.163 270.232 100.651 269.859 100C269.485 99.3493 269.299 98.6133 269.299 97.792C269.299 96.9707 269.475 96.2347 269.827 95.584C270.189 94.9333 270.68 94.4267 271.299 94.064C271.928 93.7013 272.632 93.52 273.411 93.52C274.189 93.52 274.888 93.7013 275.507 94.064C276.125 94.4267 276.611 94.9333 276.963 95.584C277.315 96.224 277.491 96.96 277.491 97.792L277.475 98.144ZM273.411 94.496C272.6 94.496 271.917 94.7573 271.363 95.28C270.819 95.792 270.509 96.464 270.435 97.296H276.403C276.328 96.464 276.013 95.792 275.459 95.28C274.915 94.7573 274.232 94.496 273.411 94.496ZM284.235 101.488C284.021 101.68 283.755 101.829 283.435 101.936C283.125 102.032 282.8 102.08 282.459 102.08C281.669 102.08 281.061 101.867 280.635 101.44C280.208 101.013 279.995 100.411 279.995 99.632V94.544H278.491V93.584H279.995V91.744H281.131V93.584H283.691V94.544H281.131V99.568C281.131 100.069 281.253 100.453 281.499 100.72C281.755 100.976 282.117 101.104 282.587 101.104C282.821 101.104 283.045 101.067 283.259 100.992C283.483 100.917 283.675 100.811 283.835 100.672L284.235 101.488ZM293.887 93.584V102H292.799V100.464C292.5 100.976 292.089 101.376 291.567 101.664C291.044 101.941 290.447 102.08 289.775 102.08C288.676 102.08 287.807 101.776 287.167 101.168C286.537 100.549 286.223 99.648 286.223 98.464V93.584H287.359V98.352C287.359 99.2373 287.577 99.9093 288.015 100.368C288.452 100.827 289.076 101.056 289.887 101.056C290.772 101.056 291.471 100.789 291.983 100.256C292.495 99.712 292.751 98.96 292.751 98V93.584H293.887ZM298.156 95.232C298.423 94.6667 298.818 94.24 299.34 93.952C299.874 93.664 300.53 93.52 301.308 93.52V94.624L301.036 94.608C300.151 94.608 299.458 94.88 298.956 95.424C298.455 95.968 298.204 96.7307 298.204 97.712V102H297.068V93.584H298.156V95.232ZM307.653 93.52C308.709 93.52 309.547 93.8293 310.165 94.448C310.795 95.056 311.109 95.9467 311.109 97.12V102H309.973V97.232C309.973 96.3573 309.755 95.6907 309.317 95.232C308.88 94.7733 308.256 94.544 307.445 94.544C306.539 94.544 305.819 94.816 305.285 95.36C304.763 95.8933 304.501 96.6347 304.501 97.584V102H303.365V93.584H304.453V95.136C304.763 94.624 305.189 94.2293 305.733 93.952C306.288 93.664 306.928 93.52 307.653 93.52Z" fill="black"/>
<path d="M1068.34 94.6717C1068.34 94.7844 1068.31 94.8958 1068.26 94.9976C1068.22 95.0995 1068.15 95.1892 1068.06 95.2602L1063.53 98.9049C1063.4 99.0159 1063.23 99.0765 1063.05 99.0765C1062.88 99.0765 1062.71 99.0159 1062.57 98.9049L1058.04 95.132C1057.89 95.0039 1057.79 94.8198 1057.78 94.6203C1057.76 94.4208 1057.82 94.2221 1057.95 94.068C1058.07 93.9139 1058.26 93.817 1058.46 93.7986C1058.66 93.7802 1058.86 93.8418 1059.01 93.9699L1063.06 97.3429L1067.1 94.0831C1067.21 93.9908 1067.35 93.9322 1067.49 93.9142C1067.63 93.8962 1067.78 93.9195 1067.91 93.9814C1068.04 94.0433 1068.15 94.1413 1068.22 94.2636C1068.3 94.3859 1068.34 94.5275 1068.34 94.6717Z" fill="#1F4AA8"/>
<path d="M1188.34 94.6731C1188.34 94.7858 1188.31 94.8972 1188.26 94.999C1188.22 95.1008 1188.15 95.1906 1188.06 95.2616L1183.53 98.9057C1183.4 99.0167 1183.23 99.0774 1183.05 99.0774C1182.88 99.0774 1182.71 99.0167 1182.57 98.9057L1178.04 95.1333C1177.89 95.0052 1177.79 94.8212 1177.78 94.6217C1177.76 94.4222 1177.82 94.2236 1177.95 94.0695C1178.07 93.9154 1178.26 93.8185 1178.46 93.8001C1178.66 93.7817 1178.86 93.8433 1179.01 93.9714L1183.06 97.3439L1187.1 94.0846C1187.21 93.9923 1187.35 93.9337 1187.49 93.9157C1187.63 93.8977 1187.78 93.921 1187.91 93.9829C1188.04 94.0448 1188.15 94.1427 1188.22 94.265C1188.3 94.3873 1188.34 94.5289 1188.34 94.6731Z" fill="#1F4AA8"/>
<path d="M981.42 100.104V101H974.546V100.286L978.62 96.296C979.133 95.792 979.479 95.358 979.656 94.994C979.843 94.6207 979.936 94.2473 979.936 93.874C979.936 93.2953 979.735 92.8473 979.334 92.53C978.942 92.2033 978.377 92.04 977.64 92.04C976.492 92.04 975.601 92.404 974.966 93.132L974.252 92.516C974.635 92.068 975.12 91.7227 975.708 91.48C976.305 91.2373 976.977 91.116 977.724 91.116C978.723 91.116 979.511 91.354 980.09 91.83C980.678 92.2967 980.972 92.9407 980.972 93.762C980.972 94.266 980.86 94.7513 980.636 95.218C980.412 95.6847 979.987 96.2213 979.362 96.828L976.03 100.104H981.42ZM990.885 100.552C990.698 100.72 990.465 100.851 990.185 100.944C989.914 101.028 989.63 101.07 989.331 101.07C988.64 101.07 988.108 100.883 987.735 100.51C987.362 100.137 987.175 99.6093 987.175 98.928V94.476H985.859V93.636H987.175V92.026H988.169V93.636H990.409V94.476H988.169V98.872C988.169 99.3107 988.276 99.6467 988.491 99.88C988.715 100.104 989.032 100.216 989.443 100.216C989.648 100.216 989.844 100.183 990.031 100.118C990.227 100.053 990.395 99.9593 990.535 99.838L990.885 100.552ZM993.647 95.078C993.88 94.5833 994.225 94.21 994.683 93.958C995.149 93.706 995.723 93.58 996.405 93.58V94.546L996.167 94.532C995.392 94.532 994.785 94.77 994.347 95.246C993.908 95.722 993.689 96.3893 993.689 97.248V101H992.695V93.636H993.647V95.078ZM1000.77 93.58C1001.73 93.58 1002.47 93.8227 1002.98 94.308C1003.49 94.784 1003.75 95.4933 1003.75 96.436V101H1002.8V99.852C1002.57 100.235 1002.24 100.533 1001.8 100.748C1001.37 100.963 1000.86 101.07 1000.26 101.07C999.441 101.07 998.788 100.874 998.303 100.482C997.817 100.09 997.575 99.572 997.575 98.928C997.575 98.3027 997.799 97.7987 998.247 97.416C998.704 97.0333 999.427 96.842 1000.42 96.842H1002.75V96.394C1002.75 95.7593 1002.58 95.2787 1002.22 94.952C1001.87 94.616 1001.35 94.448 1000.67 94.448C1000.2 94.448 999.754 94.5273 999.325 94.686C998.895 94.8353 998.527 95.0453 998.219 95.316L997.771 94.574C998.144 94.2567 998.592 94.014 999.115 93.846C999.637 93.6687 1000.19 93.58 1000.77 93.58ZM1000.42 100.286C1000.98 100.286 1001.46 100.16 1001.86 99.908C1002.26 99.6467 1002.56 99.2733 1002.75 98.788V97.584H1000.44C999.185 97.584 998.555 98.0227 998.555 98.9C998.555 99.3293 998.718 99.67 999.045 99.922C999.371 100.165 999.829 100.286 1000.42 100.286ZM1012.5 93.636L1009.22 101H1008.2L1004.94 93.636H1005.98L1008.73 99.908L1011.52 93.636H1012.5ZM1020.11 97.626H1013.95C1014 98.3913 1014.3 99.012 1014.83 99.488C1015.36 99.9547 1016.03 100.188 1016.84 100.188C1017.3 100.188 1017.72 100.109 1018.1 99.95C1018.49 99.782 1018.82 99.5393 1019.1 99.222L1019.66 99.866C1019.33 100.258 1018.92 100.557 1018.43 100.762C1017.94 100.967 1017.4 101.07 1016.82 101.07C1016.06 101.07 1015.39 100.911 1014.8 100.594C1014.22 100.267 1013.77 99.8193 1013.44 99.25C1013.12 98.6807 1012.95 98.0367 1012.95 97.318C1012.95 96.5993 1013.11 95.9553 1013.41 95.386C1013.73 94.8167 1014.16 94.3733 1014.7 94.056C1015.25 93.7387 1015.87 93.58 1016.55 93.58C1017.23 93.58 1017.84 93.7387 1018.38 94.056C1018.93 94.3733 1019.35 94.8167 1019.66 95.386C1019.97 95.946 1020.12 96.59 1020.12 97.318L1020.11 97.626ZM1016.55 94.434C1015.84 94.434 1015.24 94.6627 1014.76 95.12C1014.28 95.568 1014.01 96.156 1013.95 96.884H1019.17C1019.1 96.156 1018.83 95.568 1018.34 95.12C1017.87 94.6627 1017.27 94.434 1016.55 94.434ZM1022.14 90.612H1023.14V101H1022.14V90.612ZM1025.9 90.612H1026.9V101H1025.9V90.612ZM1036.08 97.626H1029.92C1029.97 98.3913 1030.27 99.012 1030.8 99.488C1031.33 99.9547 1032 100.188 1032.81 100.188C1033.27 100.188 1033.69 100.109 1034.07 99.95C1034.46 99.782 1034.79 99.5393 1035.07 99.222L1035.63 99.866C1035.3 100.258 1034.89 100.557 1034.4 100.762C1033.91 100.967 1033.37 101.07 1032.79 101.07C1032.03 101.07 1031.36 100.911 1030.77 100.594C1030.19 100.267 1029.74 99.8193 1029.41 99.25C1029.08 98.6807 1028.92 98.0367 1028.92 97.318C1028.92 96.5993 1029.08 95.9553 1029.38 95.386C1029.7 94.8167 1030.13 94.3733 1030.67 94.056C1031.22 93.7387 1031.84 93.58 1032.52 93.58C1033.2 93.58 1033.81 93.7387 1034.35 94.056C1034.89 94.3733 1035.32 94.8167 1035.63 95.386C1035.94 95.946 1036.09 96.59 1036.09 97.318L1036.08 97.626ZM1032.52 94.434C1031.81 94.434 1031.21 94.6627 1030.73 95.12C1030.25 95.568 1029.98 96.156 1029.92 96.884H1035.14C1035.07 96.156 1034.8 95.568 1034.31 95.12C1033.84 94.6627 1033.24 94.434 1032.52 94.434ZM1039.06 95.078C1039.3 94.5833 1039.64 94.21 1040.1 93.958C1040.57 93.706 1041.14 93.58 1041.82 93.58V94.546L1041.58 94.532C1040.81 94.532 1040.2 94.77 1039.76 95.246C1039.33 95.722 1039.11 96.3893 1039.11 97.248V101H1038.11V93.636H1039.06V95.078Z" fill="#1F4AA8"/>
<path d="M1104.53 100.104V101H1097.6V91.2H1104.32V92.096H1098.63V95.582H1103.7V96.464H1098.63V100.104H1104.53ZM1109.69 101.07C1108.97 101.07 1108.31 100.911 1107.73 100.594C1107.16 100.277 1106.72 99.8333 1106.39 99.264C1106.06 98.6853 1105.9 98.0367 1105.9 97.318C1105.9 96.5993 1106.06 95.9553 1106.39 95.386C1106.72 94.8167 1107.16 94.3733 1107.73 94.056C1108.31 93.7387 1108.97 93.58 1109.69 93.58C1110.33 93.58 1110.89 93.706 1111.39 93.958C1111.89 94.2007 1112.29 94.56 1112.58 95.036L1111.84 95.54C1111.59 95.176 1111.29 94.9053 1110.91 94.728C1110.54 94.5413 1110.13 94.448 1109.69 94.448C1109.16 94.448 1108.68 94.5693 1108.25 94.812C1107.83 95.0453 1107.5 95.3813 1107.26 95.82C1107.02 96.2587 1106.91 96.758 1106.91 97.318C1106.91 97.8873 1107.02 98.3913 1107.26 98.83C1107.5 99.2593 1107.83 99.5953 1108.25 99.838C1108.68 100.071 1109.16 100.188 1109.69 100.188C1110.13 100.188 1110.54 100.099 1110.91 99.922C1111.29 99.7447 1111.59 99.474 1111.84 99.11L1112.58 99.614C1112.29 100.09 1111.89 100.454 1111.39 100.706C1110.88 100.949 1110.32 101.07 1109.69 101.07ZM1117.42 101.07C1116.71 101.07 1116.07 100.911 1115.5 100.594C1114.93 100.267 1114.48 99.8193 1114.16 99.25C1113.83 98.6807 1113.67 98.0367 1113.67 97.318C1113.67 96.5993 1113.83 95.9553 1114.16 95.386C1114.48 94.8167 1114.93 94.3733 1115.5 94.056C1116.07 93.7387 1116.71 93.58 1117.42 93.58C1118.13 93.58 1118.77 93.7387 1119.34 94.056C1119.9 94.3733 1120.35 94.8167 1120.67 95.386C1120.99 95.9553 1121.16 96.5993 1121.16 97.318C1121.16 98.0367 1120.99 98.6807 1120.67 99.25C1120.35 99.8193 1119.9 100.267 1119.34 100.594C1118.77 100.911 1118.13 101.07 1117.42 101.07ZM1117.42 100.188C1117.94 100.188 1118.41 100.071 1118.82 99.838C1119.24 99.5953 1119.56 99.2547 1119.8 98.816C1120.03 98.3773 1120.15 97.878 1120.15 97.318C1120.15 96.758 1120.03 96.2587 1119.8 95.82C1119.56 95.3813 1119.24 95.0453 1118.82 94.812C1118.41 94.5693 1117.94 94.448 1117.42 94.448C1116.89 94.448 1116.42 94.5693 1116 94.812C1115.59 95.0453 1115.27 95.3813 1115.02 95.82C1114.79 96.2587 1114.67 96.758 1114.67 97.318C1114.67 97.878 1114.79 98.3773 1115.02 98.816C1115.27 99.2547 1115.59 99.5953 1116 99.838C1116.42 100.071 1116.89 100.188 1117.42 100.188ZM1126.94 93.58C1127.86 93.58 1128.59 93.8507 1129.13 94.392C1129.69 94.924 1129.96 95.7033 1129.96 96.73V101H1128.97V96.828C1128.97 96.0627 1128.78 95.4793 1128.39 95.078C1128.01 94.6767 1127.46 94.476 1126.75 94.476C1125.96 94.476 1125.33 94.714 1124.86 95.19C1124.41 95.6567 1124.18 96.3053 1124.18 97.136V101H1123.18V93.636H1124.14V94.994C1124.41 94.546 1124.78 94.2007 1125.26 93.958C1125.74 93.706 1126.3 93.58 1126.94 93.58ZM1135.7 101.07C1134.99 101.07 1134.35 100.911 1133.78 100.594C1133.21 100.267 1132.76 99.8193 1132.43 99.25C1132.11 98.6807 1131.94 98.0367 1131.94 97.318C1131.94 96.5993 1132.11 95.9553 1132.43 95.386C1132.76 94.8167 1133.21 94.3733 1133.78 94.056C1134.35 93.7387 1134.99 93.58 1135.7 93.58C1136.41 93.58 1137.05 93.7387 1137.61 94.056C1138.18 94.3733 1138.63 94.8167 1138.94 95.386C1139.27 95.9553 1139.43 96.5993 1139.43 97.318C1139.43 98.0367 1139.27 98.6807 1138.94 99.25C1138.63 99.8193 1138.18 100.267 1137.61 100.594C1137.05 100.911 1136.41 101.07 1135.7 101.07ZM1135.7 100.188C1136.22 100.188 1136.69 100.071 1137.1 99.838C1137.52 99.5953 1137.84 99.2547 1138.08 98.816C1138.31 98.3773 1138.43 97.878 1138.43 97.318C1138.43 96.758 1138.31 96.2587 1138.08 95.82C1137.84 95.3813 1137.52 95.0453 1137.1 94.812C1136.69 94.5693 1136.22 94.448 1135.7 94.448C1135.17 94.448 1134.7 94.5693 1134.28 94.812C1133.87 95.0453 1133.55 95.3813 1133.3 95.82C1133.07 96.2587 1132.95 96.758 1132.95 97.318C1132.95 97.878 1133.07 98.3773 1133.3 98.816C1133.55 99.2547 1133.87 99.5953 1134.28 99.838C1134.7 100.071 1135.17 100.188 1135.7 100.188ZM1150.65 93.58C1151.57 93.58 1152.3 93.846 1152.82 94.378C1153.35 94.91 1153.62 95.694 1153.62 96.73V101H1152.62V96.828C1152.62 96.0627 1152.44 95.4793 1152.06 95.078C1151.7 94.6767 1151.18 94.476 1150.51 94.476C1149.74 94.476 1149.14 94.714 1148.7 95.19C1148.26 95.6567 1148.04 96.3053 1148.04 97.136V101H1147.05V96.828C1147.05 96.0627 1146.86 95.4793 1146.49 95.078C1146.13 94.6767 1145.6 94.476 1144.92 94.476C1144.17 94.476 1143.56 94.714 1143.12 95.19C1142.68 95.6567 1142.46 96.3053 1142.46 97.136V101H1141.46V93.636H1142.42V94.98C1142.68 94.532 1143.04 94.1867 1143.51 93.944C1143.97 93.7013 1144.51 93.58 1145.12 93.58C1145.73 93.58 1146.27 93.7107 1146.71 93.972C1147.17 94.2333 1147.51 94.6207 1147.74 95.134C1148.01 94.6487 1148.39 94.2707 1148.9 94C1149.41 93.72 1149.99 93.58 1150.65 93.58ZM1162.36 93.636L1158.68 101.882C1158.38 102.573 1158.04 103.063 1157.65 103.352C1157.25 103.641 1156.78 103.786 1156.23 103.786C1155.88 103.786 1155.55 103.73 1155.24 103.618C1154.93 103.506 1154.66 103.338 1154.44 103.114L1154.9 102.372C1155.27 102.745 1155.72 102.932 1156.25 102.932C1156.58 102.932 1156.87 102.839 1157.1 102.652C1157.34 102.465 1157.57 102.148 1157.77 101.7L1158.09 100.986L1154.8 93.636H1155.84L1158.61 99.894L1161.38 93.636H1162.36Z" fill="#1F4AA8"/>
<path d="M121.215 144.183C120.724 144.183 120.351 144.317 120.095 144.583C119.849 144.85 119.727 145.245 119.727 145.767V146.759H122.319V147.719H119.759V155.175H118.623V147.719H117.119V146.759H118.623V145.719C118.623 144.951 118.841 144.343 119.279 143.895C119.727 143.447 120.356 143.223 121.167 143.223C121.487 143.223 121.796 143.271 122.095 143.367C122.393 143.453 122.644 143.581 122.847 143.751L122.463 144.599C122.132 144.322 121.716 144.183 121.215 144.183ZM126.222 148.407C126.488 147.842 126.883 147.415 127.406 147.127C127.939 146.839 128.595 146.695 129.374 146.695V147.799L129.102 147.783C128.216 147.783 127.523 148.055 127.022 148.599C126.52 149.143 126.27 149.906 126.27 150.887V155.175H125.134V146.759H126.222V148.407ZM134.792 155.255C133.982 155.255 133.251 155.074 132.6 154.711C131.95 154.338 131.438 153.826 131.064 153.175C130.691 152.525 130.504 151.789 130.504 150.967C130.504 150.146 130.691 149.41 131.064 148.759C131.438 148.109 131.95 147.602 132.6 147.239C133.251 146.877 133.982 146.695 134.792 146.695C135.603 146.695 136.334 146.877 136.984 147.239C137.635 147.602 138.142 148.109 138.504 148.759C138.878 149.41 139.064 150.146 139.064 150.967C139.064 151.789 138.878 152.525 138.504 153.175C138.142 153.826 137.635 154.338 136.984 154.711C136.334 155.074 135.603 155.255 134.792 155.255ZM134.792 154.247C135.39 154.247 135.923 154.114 136.392 153.847C136.872 153.57 137.246 153.181 137.512 152.679C137.779 152.178 137.912 151.607 137.912 150.967C137.912 150.327 137.779 149.757 137.512 149.255C137.246 148.754 136.872 148.37 136.392 148.103C135.923 147.826 135.39 147.687 134.792 147.687C134.195 147.687 133.656 147.826 133.176 148.103C132.707 148.37 132.334 148.754 132.056 149.255C131.79 149.757 131.656 150.327 131.656 150.967C131.656 151.607 131.79 152.178 132.056 152.679C132.334 153.181 132.707 153.57 133.176 153.847C133.656 154.114 134.195 154.247 134.792 154.247ZM151.88 146.695C152.936 146.695 153.762 146.999 154.36 147.607C154.968 148.215 155.272 149.111 155.272 150.295V155.175H154.136V150.407C154.136 149.533 153.922 148.866 153.496 148.407C153.08 147.949 152.488 147.719 151.72 147.719C150.845 147.719 150.157 147.991 149.656 148.535C149.154 149.069 148.904 149.81 148.904 150.759V155.175H147.768V150.407C147.768 149.533 147.554 148.866 147.128 148.407C146.712 147.949 146.114 147.719 145.336 147.719C144.472 147.719 143.784 147.991 143.272 148.535C142.77 149.069 142.52 149.81 142.52 150.759V155.175H141.384V146.759H142.472V148.295C142.77 147.783 143.186 147.389 143.72 147.111C144.253 146.834 144.866 146.695 145.56 146.695C146.264 146.695 146.872 146.845 147.384 147.143C147.906 147.442 148.296 147.885 148.552 148.471C148.861 147.917 149.304 147.485 149.88 147.175C150.466 146.855 151.133 146.695 151.88 146.695Z" fill="#5F5F5F"/>
<rect x="43.912" y="127.354" width="363.35" height="47.7869" rx="9.75" stroke="black" stroke-width="0.5"/>
<g clip-path="url(#clip0_11_112)">
<path d="M92.4277 160.877H59.3527V162.07H92.4277V160.877Z" fill="#1F4AA8"/>
<path d="M91.9258 142.087C89.5237 140.926 86.7943 141.542 84.9279 142.264L79.3643 144.416L69.7956 140.424L64.0971 140.627L71.9986 147.272L66.963 149.256L61.7238 147.602L58.216 148.959L61.3861 152.224C61.0512 152.555 60.7477 153.022 61.0232 153.512C61.3831 154.152 62.4467 154.474 64.1914 154.474C64.5492 154.474 64.9357 154.461 65.3505 154.434C67.2657 154.308 69.3421 153.903 70.6404 153.401L90.5282 145.708C92.246 145.044 93.1016 144.346 93.144 143.575C93.166 143.176 92.9725 142.593 91.9258 142.087ZM89.9204 144.627L70.0326 152.32C68.9265 152.747 67.1104 153.106 65.4061 153.233C63.664 153.363 62.7326 153.2 62.4221 153.061C62.4861 152.989 62.6054 152.875 62.8256 152.714L63.3422 152.337L60.4871 149.396L61.7803 148.896L67.0251 150.552L74.4432 147.629L67.3968 141.704L69.4834 141.629L79.3404 145.741L85.5355 143.345C87.798 142.47 89.7043 142.394 91.2016 143.117L91.2017 143.117C91.5789 143.3 91.7108 143.459 91.7074 143.521C91.7072 143.525 91.664 143.953 89.9204 144.627Z" fill="#1F4AA8"/>
</g>
<path d="M535.669 154.663C535.455 154.855 535.189 155.005 534.869 155.111C534.559 155.207 534.234 155.255 533.893 155.255C533.103 155.255 532.495 155.042 532.069 154.615C531.642 154.189 531.429 153.586 531.429 152.807V147.719H529.925V146.759H531.429V144.919H532.565V146.759H535.125V147.719H532.565V152.743C532.565 153.245 532.687 153.629 532.933 153.895C533.189 154.151 533.551 154.279 534.021 154.279C534.255 154.279 534.479 154.242 534.693 154.167C534.917 154.093 535.109 153.986 535.269 153.847L535.669 154.663ZM540.88 155.255C540.069 155.255 539.339 155.074 538.688 154.711C538.037 154.338 537.525 153.826 537.152 153.175C536.779 152.525 536.592 151.789 536.592 150.967C536.592 150.146 536.779 149.41 537.152 148.759C537.525 148.109 538.037 147.602 538.688 147.239C539.339 146.877 540.069 146.695 540.88 146.695C541.691 146.695 542.421 146.877 543.072 147.239C543.723 147.602 544.229 148.109 544.592 148.759C544.965 149.41 545.152 150.146 545.152 150.967C545.152 151.789 544.965 152.525 544.592 153.175C544.229 153.826 543.723 154.338 543.072 154.711C542.421 155.074 541.691 155.255 540.88 155.255ZM540.88 154.247C541.477 154.247 542.011 154.114 542.48 153.847C542.96 153.57 543.333 153.181 543.6 152.679C543.867 152.178 544 151.607 544 150.967C544 150.327 543.867 149.757 543.6 149.255C543.333 148.754 542.96 148.37 542.48 148.103C542.011 147.826 541.477 147.687 540.88 147.687C540.283 147.687 539.744 147.826 539.264 148.103C538.795 148.37 538.421 148.754 538.144 149.255C537.877 149.757 537.744 150.327 537.744 150.967C537.744 151.607 537.877 152.178 538.144 152.679C538.421 153.181 538.795 153.57 539.264 153.847C539.744 154.114 540.283 154.247 540.88 154.247Z" fill="#5F5F5F"/>
<rect x="461.611" y="127.354" width="363.35" height="47.7869" rx="9.75" stroke="black" stroke-width="0.5"/>
<g clip-path="url(#clip1_11_112)">
<path d="M476.633 160.877H509.708V162.07H476.633V160.877Z" fill="#1F4AA8"/>
<path d="M477.762 153.969C478.309 151.708 480.677 150.424 482.567 149.745L488.2 147.721L490.951 139.135L494.916 135.735L495.664 145.047L500.795 143.24L502.781 138.891L506.333 137.616L507.173 141.749C507.694 141.762 508.317 141.883 508.576 142.379C508.914 143.027 508.499 143.901 507.341 144.984C507.104 145.206 506.835 145.437 506.535 145.676C505.151 146.781 503.407 147.8 502.092 148.272L481.956 155.505C480.217 156.13 479.02 156.198 478.296 155.713C477.921 155.461 477.524 154.954 477.762 153.969ZM481.384 154.411L501.521 147.178C502.641 146.775 504.17 145.886 505.415 144.913C506.688 143.919 507.16 143.233 507.241 142.948C507.133 142.94 506.951 142.938 506.66 142.968L505.977 143.038L505.22 139.315L503.911 139.785L501.923 144.138L494.364 146.801L493.697 138.496L492.245 139.742L489.411 148.586L483.138 150.839C480.848 151.662 479.513 152.794 479.172 154.203L479.172 154.203C479.086 154.559 479.142 154.746 479.201 154.785C479.205 154.788 479.619 155.045 481.384 154.411Z" fill="#1F4AA8"/>
</g>
<path d="M864.507 150.04H867.418V152.454H864.507V150.04ZM864.507 154.869H867.418V157.283H864.507V154.869ZM870.329 150.04H873.239V152.454H870.329V150.04ZM870.329 154.869H873.239V157.283H870.329V154.869ZM876.15 150.04H879.061V152.454H876.15V150.04ZM876.15 154.869H879.061V157.283H876.15V154.869Z" fill="black"/>
<path d="M861.596 163.319H881.972C883.577 163.319 884.883 162.236 884.883 160.904V144.004C884.883 142.672 883.577 141.59 881.972 141.59H879.061V139.175H876.15V141.59H867.418V139.175H864.507V141.59H861.596C859.991 141.59 858.685 142.672 858.685 144.004V160.904C858.685 162.236 859.991 163.319 861.596 163.319ZM881.972 146.418L881.973 160.904H861.596V146.418H881.972Z" fill="black"/>
<path d="M910.937 136.647H914.072C914.886 136.647 915.605 136.812 916.228 137.142C916.851 137.464 917.335 137.919 917.68 138.506C918.025 139.085 918.197 139.749 918.197 140.497C918.197 141.245 918.025 141.912 917.68 142.499C917.335 143.078 916.851 143.533 916.228 143.863C915.605 144.185 914.886 144.347 914.072 144.347H910.937V136.647ZM914.028 143.643C914.703 143.643 915.293 143.511 915.799 143.247C916.305 142.975 916.697 142.605 916.976 142.136C917.255 141.659 917.394 141.113 917.394 140.497C917.394 139.881 917.255 139.338 916.976 138.869C916.697 138.392 916.305 138.022 915.799 137.758C915.293 137.486 914.703 137.351 914.028 137.351H911.751V143.643H914.028ZM924.898 141.696H920.058C920.102 142.297 920.333 142.785 920.751 143.159C921.169 143.525 921.697 143.709 922.335 143.709C922.694 143.709 923.024 143.646 923.325 143.522C923.625 143.39 923.886 143.199 924.106 142.95L924.546 143.456C924.289 143.764 923.966 143.998 923.578 144.16C923.196 144.321 922.775 144.402 922.313 144.402C921.719 144.402 921.191 144.277 920.729 144.028C920.274 143.771 919.918 143.419 919.662 142.972C919.405 142.524 919.277 142.018 919.277 141.454C919.277 140.889 919.398 140.383 919.64 139.936C919.889 139.488 920.226 139.14 920.652 138.891C921.084 138.641 921.568 138.517 922.104 138.517C922.639 138.517 923.119 138.641 923.545 138.891C923.97 139.14 924.304 139.488 924.546 139.936C924.788 140.376 924.909 140.882 924.909 141.454L924.898 141.696ZM922.104 139.188C921.546 139.188 921.077 139.367 920.696 139.727C920.322 140.079 920.109 140.541 920.058 141.113H924.161C924.109 140.541 923.893 140.079 923.512 139.727C923.138 139.367 922.668 139.188 922.104 139.188ZM929.479 138.517C930.022 138.517 930.513 138.641 930.953 138.891C931.393 139.133 931.738 139.477 931.987 139.925C932.237 140.372 932.361 140.882 932.361 141.454C932.361 142.033 932.237 142.546 931.987 142.994C931.738 143.441 931.393 143.789 930.953 144.039C930.521 144.281 930.029 144.402 929.479 144.402C929.01 144.402 928.585 144.306 928.203 144.116C927.829 143.918 927.521 143.632 927.279 143.258V146.481H926.498V138.561H927.246V139.705C927.481 139.323 927.789 139.03 928.17 138.825C928.559 138.619 928.995 138.517 929.479 138.517ZM929.424 143.709C929.828 143.709 930.194 143.617 930.524 143.434C930.854 143.243 931.111 142.975 931.294 142.631C931.485 142.286 931.58 141.894 931.58 141.454C931.58 141.014 931.485 140.625 931.294 140.288C931.111 139.943 930.854 139.675 930.524 139.485C930.194 139.294 929.828 139.199 929.424 139.199C929.014 139.199 928.643 139.294 928.313 139.485C927.991 139.675 927.734 139.943 927.543 140.288C927.36 140.625 927.268 141.014 927.268 141.454C927.268 141.894 927.36 142.286 927.543 142.631C927.734 142.975 927.991 143.243 928.313 143.434C928.643 143.617 929.014 143.709 929.424 143.709ZM935.945 138.517C936.701 138.517 937.28 138.707 937.683 139.089C938.087 139.463 938.288 140.02 938.288 140.761V144.347H937.54V143.445C937.364 143.745 937.104 143.98 936.759 144.149C936.422 144.317 936.019 144.402 935.549 144.402C934.904 144.402 934.391 144.248 934.009 143.94C933.628 143.632 933.437 143.225 933.437 142.719C933.437 142.227 933.613 141.831 933.965 141.531C934.325 141.23 934.893 141.08 935.67 141.08H937.507V140.728C937.507 140.229 937.368 139.851 937.089 139.595C936.811 139.331 936.404 139.199 935.868 139.199C935.502 139.199 935.15 139.261 934.812 139.386C934.475 139.503 934.185 139.668 933.943 139.881L933.591 139.298C933.885 139.048 934.237 138.858 934.647 138.726C935.058 138.586 935.491 138.517 935.945 138.517ZM935.67 143.786C936.11 143.786 936.488 143.687 936.803 143.489C937.119 143.283 937.353 142.99 937.507 142.609V141.663H935.692C934.702 141.663 934.207 142.007 934.207 142.697C934.207 143.034 934.336 143.302 934.592 143.5C934.849 143.69 935.208 143.786 935.67 143.786ZM941.158 139.694C941.341 139.305 941.612 139.012 941.972 138.814C942.338 138.616 942.789 138.517 943.325 138.517V139.276L943.138 139.265C942.529 139.265 942.052 139.452 941.708 139.826C941.363 140.2 941.191 140.724 941.191 141.399V144.347H940.41V138.561H941.158V139.694ZM948.033 143.995C947.886 144.127 947.703 144.229 947.483 144.303C947.27 144.369 947.046 144.402 946.812 144.402C946.269 144.402 945.851 144.255 945.558 143.962C945.264 143.668 945.118 143.254 945.118 142.719V139.221H944.084V138.561H945.118V137.296H945.899V138.561H947.659V139.221H945.899V142.675C945.899 143.019 945.983 143.283 946.152 143.467C946.328 143.643 946.577 143.731 946.9 143.731C947.061 143.731 947.215 143.705 947.362 143.654C947.516 143.602 947.648 143.529 947.758 143.434L948.033 143.995ZM949.455 138.561H950.236V144.347H949.455V138.561ZM949.851 137.296C949.689 137.296 949.554 137.241 949.444 137.131C949.334 137.021 949.279 136.889 949.279 136.735C949.279 136.588 949.334 136.46 949.444 136.35C949.554 136.24 949.689 136.185 949.851 136.185C950.012 136.185 950.148 136.24 950.258 136.35C950.368 136.452 950.423 136.577 950.423 136.724C950.423 136.885 950.368 137.021 950.258 137.131C950.148 137.241 950.012 137.296 949.851 137.296ZM955.357 138.517C956.083 138.517 956.658 138.729 957.084 139.155C957.516 139.573 957.733 140.185 957.733 140.992V144.347H956.952V141.069C956.952 140.467 956.801 140.009 956.501 139.694C956.2 139.378 955.771 139.221 955.214 139.221C954.59 139.221 954.095 139.408 953.729 139.782C953.369 140.148 953.19 140.658 953.19 141.311V144.347H952.409V138.561H953.157V139.628C953.369 139.276 953.663 139.004 954.037 138.814C954.418 138.616 954.858 138.517 955.357 138.517ZM965.231 138.561V143.643C965.231 144.625 964.989 145.351 964.505 145.821C964.029 146.297 963.306 146.536 962.338 146.536C961.803 146.536 961.293 146.455 960.809 146.294C960.333 146.14 959.944 145.923 959.643 145.645L960.039 145.051C960.318 145.3 960.655 145.494 961.051 145.634C961.455 145.773 961.876 145.843 962.316 145.843C963.05 145.843 963.589 145.67 963.933 145.326C964.278 144.988 964.45 144.46 964.45 143.742V143.005C964.208 143.371 963.889 143.65 963.493 143.841C963.105 144.031 962.672 144.127 962.195 144.127C961.653 144.127 961.158 144.009 960.71 143.775C960.27 143.533 959.922 143.199 959.665 142.774C959.416 142.341 959.291 141.853 959.291 141.311C959.291 140.768 959.416 140.284 959.665 139.859C959.922 139.433 960.27 139.103 960.71 138.869C961.15 138.634 961.645 138.517 962.195 138.517C962.687 138.517 963.13 138.616 963.526 138.814C963.922 139.012 964.241 139.298 964.483 139.672V138.561H965.231ZM962.272 143.434C962.69 143.434 963.068 143.346 963.405 143.17C963.743 142.986 964.003 142.733 964.186 142.411C964.377 142.088 964.472 141.721 964.472 141.311C964.472 140.9 964.377 140.537 964.186 140.222C964.003 139.899 963.743 139.65 963.405 139.474C963.075 139.29 962.698 139.199 962.272 139.199C961.854 139.199 961.477 139.287 961.139 139.463C960.809 139.639 960.549 139.888 960.358 140.211C960.175 140.533 960.083 140.9 960.083 141.311C960.083 141.721 960.175 142.088 960.358 142.411C960.549 142.733 960.809 142.986 961.139 143.17C961.477 143.346 961.854 143.434 962.272 143.434Z" fill="black"/>
<path d="M908.192 152.733V161.833H907.256V153.565H905.111V152.733H908.192ZM913.994 161.911C913.292 161.911 912.664 161.724 912.109 161.352C911.563 160.979 911.134 160.446 910.822 159.753C910.519 159.051 910.367 158.227 910.367 157.283C910.367 156.338 910.519 155.519 910.822 154.826C911.134 154.124 911.563 153.586 912.109 153.214C912.664 152.841 913.292 152.655 913.994 152.655C914.696 152.655 915.32 152.841 915.866 153.214C916.421 153.586 916.854 154.124 917.166 154.826C917.478 155.519 917.634 156.338 917.634 157.283C917.634 158.227 917.478 159.051 917.166 159.753C916.854 160.446 916.421 160.979 915.866 161.352C915.32 161.724 914.696 161.911 913.994 161.911ZM913.994 161.053C914.523 161.053 914.987 160.905 915.385 160.611C915.793 160.316 916.109 159.887 916.334 159.324C916.56 158.76 916.672 158.08 916.672 157.283C916.672 156.485 916.56 155.805 916.334 155.242C916.109 154.678 915.793 154.249 915.385 153.955C914.987 153.66 914.523 153.513 913.994 153.513C913.466 153.513 912.998 153.66 912.59 153.955C912.192 154.249 911.88 154.678 911.654 155.242C911.429 155.805 911.316 156.485 911.316 157.283C911.316 158.08 911.429 158.76 911.654 159.324C911.88 159.887 912.192 160.316 912.59 160.611C912.998 160.905 913.466 161.053 913.994 161.053ZM924.158 161.911C923.638 161.911 923.157 161.798 922.715 161.573C922.273 161.347 921.913 161.027 921.636 160.611L922.208 159.961C922.711 160.706 923.365 161.079 924.171 161.079C925.298 161.079 925.861 160.411 925.861 159.077V153.565H922.533V152.733H926.81V159.038C926.81 159.991 926.585 160.71 926.134 161.196C925.692 161.672 925.033 161.911 924.158 161.911ZM935.663 154.995V161.833H934.779V160.585C934.536 161.001 934.202 161.326 933.778 161.56C933.353 161.785 932.868 161.898 932.322 161.898C931.429 161.898 930.723 161.651 930.203 161.157C929.691 160.654 929.436 159.922 929.436 158.96V154.995H930.359V158.869C930.359 159.588 930.536 160.134 930.892 160.507C931.247 160.879 931.754 161.066 932.413 161.066C933.132 161.066 933.7 160.849 934.116 160.416C934.532 159.974 934.74 159.363 934.74 158.583V154.995H935.663ZM938.248 152.187H939.171V161.833H938.248V152.187Z" fill="black"/>
<rect x="840.015" y="127.354" width="174.148" height="47.7869" rx="9.75" stroke="black" stroke-width="0.5"/>
<path d="M1046.43 150.04H1049.34V152.454H1046.43V150.04ZM1046.43 154.869H1049.34V157.283H1046.43V154.869ZM1052.25 150.04H1055.16V152.454H1052.25V150.04ZM1052.25 154.869H1055.16V157.283H1052.25V154.869ZM1058.08 150.04H1060.99V152.454H1058.08V150.04ZM1058.08 154.869H1060.99V157.283H1058.08V154.869Z" fill="black"/>
<path d="M1043.52 163.319H1063.9C1065.5 163.319 1066.81 162.236 1066.81 160.904V144.004C1066.81 142.672 1065.5 141.59 1063.9 141.59H1060.99V139.175H1058.08V141.59H1049.34V139.175H1046.43V141.59H1043.52C1041.92 141.59 1040.61 142.672 1040.61 144.004V160.904C1040.61 162.236 1041.92 163.319 1043.52 163.319ZM1063.9 146.418L1063.9 160.904H1043.52V146.418H1063.9Z" fill="black"/>
<path d="M1098.35 144.347L1096.59 141.872C1096.39 141.894 1096.18 141.905 1095.97 141.905H1093.9V144.347H1093.09V136.647H1095.97C1096.95 136.647 1097.72 136.881 1098.28 137.351C1098.84 137.82 1099.12 138.465 1099.12 139.287C1099.12 139.888 1098.96 140.398 1098.65 140.816C1098.35 141.226 1097.92 141.523 1097.36 141.707L1099.24 144.347H1098.35ZM1095.95 141.212C1096.71 141.212 1097.29 141.043 1097.7 140.706C1098.1 140.368 1098.3 139.895 1098.3 139.287C1098.3 138.663 1098.1 138.187 1097.7 137.857C1097.29 137.519 1096.71 137.351 1095.95 137.351H1093.9V141.212H1095.95ZM1105.91 141.696H1101.07C1101.11 142.297 1101.34 142.785 1101.76 143.159C1102.18 143.525 1102.71 143.709 1103.35 143.709C1103.71 143.709 1104.04 143.646 1104.34 143.522C1104.64 143.39 1104.9 143.199 1105.12 142.95L1105.56 143.456C1105.3 143.764 1104.98 143.998 1104.59 144.16C1104.21 144.321 1103.79 144.402 1103.32 144.402C1102.73 144.402 1102.2 144.277 1101.74 144.028C1101.29 143.771 1100.93 143.419 1100.67 142.972C1100.42 142.524 1100.29 142.018 1100.29 141.454C1100.29 140.889 1100.41 140.383 1100.65 139.936C1100.9 139.488 1101.24 139.14 1101.66 138.891C1102.1 138.641 1102.58 138.517 1103.12 138.517C1103.65 138.517 1104.13 138.641 1104.56 138.891C1104.98 139.14 1105.32 139.488 1105.56 139.936C1105.8 140.376 1105.92 140.882 1105.92 141.454L1105.91 141.696ZM1103.12 139.188C1102.56 139.188 1102.09 139.367 1101.71 139.727C1101.33 140.079 1101.12 140.541 1101.07 141.113H1105.17C1105.12 140.541 1104.91 140.079 1104.52 139.727C1104.15 139.367 1103.68 139.188 1103.12 139.188ZM1110.56 143.995C1110.41 144.127 1110.23 144.229 1110.01 144.303C1109.79 144.369 1109.57 144.402 1109.34 144.402C1108.79 144.402 1108.38 144.255 1108.08 143.962C1107.79 143.668 1107.64 143.254 1107.64 142.719V139.221H1106.61V138.561H1107.64V137.296H1108.42V138.561H1110.18V139.221H1108.42V142.675C1108.42 143.019 1108.51 143.283 1108.68 143.467C1108.85 143.643 1109.1 143.731 1109.42 143.731C1109.59 143.731 1109.74 143.705 1109.89 143.654C1110.04 143.602 1110.17 143.529 1110.28 143.434L1110.56 143.995ZM1117.19 138.561V144.347H1116.45V143.291C1116.24 143.643 1115.96 143.918 1115.6 144.116C1115.24 144.306 1114.83 144.402 1114.37 144.402C1113.61 144.402 1113.01 144.193 1112.57 143.775C1112.14 143.349 1111.92 142.73 1111.92 141.916V138.561H1112.71V141.839C1112.71 142.447 1112.86 142.909 1113.16 143.225C1113.46 143.54 1113.89 143.698 1114.44 143.698C1115.05 143.698 1115.53 143.514 1115.88 143.148C1116.24 142.774 1116.41 142.257 1116.41 141.597V138.561H1117.19ZM1120.13 139.694C1120.31 139.305 1120.58 139.012 1120.94 138.814C1121.31 138.616 1121.76 138.517 1122.3 138.517V139.276L1122.11 139.265C1121.5 139.265 1121.02 139.452 1120.68 139.826C1120.33 140.2 1120.16 140.724 1120.16 141.399V144.347H1119.38V138.561H1120.13V139.694ZM1126.66 138.517C1127.38 138.517 1127.96 138.729 1128.38 139.155C1128.82 139.573 1129.03 140.185 1129.03 140.992V144.347H1128.25V141.069C1128.25 140.467 1128.1 140.009 1127.8 139.694C1127.5 139.378 1127.07 139.221 1126.51 139.221C1125.89 139.221 1125.4 139.408 1125.03 139.782C1124.67 140.148 1124.49 140.658 1124.49 141.311V144.347H1123.71V138.561H1124.46V139.628C1124.67 139.276 1124.96 139.004 1125.34 138.814C1125.72 138.616 1126.16 138.517 1126.66 138.517ZM1131.15 138.561H1131.93V144.347H1131.15V138.561ZM1131.55 137.296C1131.39 137.296 1131.25 137.241 1131.14 137.131C1131.03 137.021 1130.98 136.889 1130.98 136.735C1130.98 136.588 1131.03 136.46 1131.14 136.35C1131.25 136.24 1131.39 136.185 1131.55 136.185C1131.71 136.185 1131.85 136.24 1131.96 136.35C1132.07 136.452 1132.12 136.577 1132.12 136.724C1132.12 136.885 1132.07 137.021 1131.96 137.131C1131.85 137.241 1131.71 137.296 1131.55 137.296ZM1137.06 138.517C1137.78 138.517 1138.36 138.729 1138.78 139.155C1139.22 139.573 1139.43 140.185 1139.43 140.992V144.347H1138.65V141.069C1138.65 140.467 1138.5 140.009 1138.2 139.694C1137.9 139.378 1137.47 139.221 1136.91 139.221C1136.29 139.221 1135.79 139.408 1135.43 139.782C1135.07 140.148 1134.89 140.658 1134.89 141.311V144.347H1134.11V138.561H1134.86V139.628C1135.07 139.276 1135.36 139.004 1135.74 138.814C1136.12 138.616 1136.56 138.517 1137.06 138.517ZM1146.93 138.561V143.643C1146.93 144.625 1146.69 145.351 1146.2 145.821C1145.73 146.297 1145.01 146.536 1144.04 146.536C1143.5 146.536 1142.99 146.455 1142.51 146.294C1142.03 146.14 1141.64 145.923 1141.34 145.645L1141.74 145.051C1142.02 145.3 1142.35 145.494 1142.75 145.634C1143.15 145.773 1143.58 145.843 1144.02 145.843C1144.75 145.843 1145.29 145.67 1145.63 145.326C1145.98 144.988 1146.15 144.46 1146.15 143.742V143.005C1145.91 143.371 1145.59 143.65 1145.19 143.841C1144.8 144.031 1144.37 144.127 1143.89 144.127C1143.35 144.127 1142.86 144.009 1142.41 143.775C1141.97 143.533 1141.62 143.199 1141.36 142.774C1141.12 142.341 1140.99 141.853 1140.99 141.311C1140.99 140.768 1141.12 140.284 1141.36 139.859C1141.62 139.433 1141.97 139.103 1142.41 138.869C1142.85 138.634 1143.34 138.517 1143.89 138.517C1144.39 138.517 1144.83 138.616 1145.23 138.814C1145.62 139.012 1145.94 139.298 1146.18 139.672V138.561H1146.93ZM1143.97 143.434C1144.39 143.434 1144.77 143.346 1145.1 143.17C1145.44 142.986 1145.7 142.733 1145.89 142.411C1146.08 142.088 1146.17 141.721 1146.17 141.311C1146.17 140.9 1146.08 140.537 1145.89 140.222C1145.7 139.899 1145.44 139.65 1145.1 139.474C1144.77 139.29 1144.4 139.199 1143.97 139.199C1143.55 139.199 1143.18 139.287 1142.84 139.463C1142.51 139.639 1142.25 139.888 1142.06 140.211C1141.87 140.533 1141.78 140.9 1141.78 141.311C1141.78 141.721 1141.87 142.088 1142.06 142.411C1142.25 142.733 1142.51 142.986 1142.84 143.17C1143.18 143.346 1143.55 143.434 1143.97 143.434Z" fill="black"/>
<path d="M1092.07 152.733V161.833H1091.14V153.565H1088.99V152.733H1092.07ZM1096.77 152.733V161.833H1095.83V153.565H1093.69V152.733H1096.77ZM1104.13 161.911C1103.61 161.911 1103.13 161.798 1102.68 161.573C1102.24 161.347 1101.88 161.027 1101.61 160.611L1102.18 159.961C1102.68 160.706 1103.33 161.079 1104.14 161.079C1105.27 161.079 1105.83 160.411 1105.83 159.077V153.565H1102.5V152.733H1106.78V159.038C1106.78 159.991 1106.55 160.71 1106.1 161.196C1105.66 161.672 1105 161.911 1104.13 161.911ZM1115.63 154.995V161.833H1114.75V160.585C1114.51 161.001 1114.17 161.326 1113.75 161.56C1113.32 161.785 1112.84 161.898 1112.29 161.898C1111.4 161.898 1110.69 161.651 1110.17 161.157C1109.66 160.654 1109.41 159.922 1109.41 158.96V154.995H1110.33V158.869C1110.33 159.588 1110.51 160.134 1110.86 160.507C1111.22 160.879 1111.72 161.066 1112.38 161.066C1113.1 161.066 1113.67 160.849 1114.09 160.416C1114.5 159.974 1114.71 159.363 1114.71 158.583V154.995H1115.63ZM1118.22 152.187H1119.14V161.833H1118.22V152.187Z" fill="black"/>
<rect x="1021.94" y="127.354" width="174.148" height="47.7869" rx="9.75" stroke="black" stroke-width="0.5"/>
<circle cx="434.5" cy="150.5" r="18" stroke="black"/>
<g clip-path="url(#clip2_11_112)">
<path d="M440.665 145.476L437.681 142.492M440.665 145.476H427.238H440.665ZM440.665 145.476L437.681 148.46L440.665 145.476Z" stroke="black" stroke-width="2" stroke-linecap="round" stroke-linejoin="round"/>
<path d="M427.238 154.427L430.222 151.444M427.238 154.427H440.665H427.238ZM427.238 154.427L430.222 157.411L427.238 154.427Z" stroke="black" stroke-width="2" stroke-linecap="round" stroke-linejoin="round"/>
</g>
<line x1="44" y1="54.5" x2="1196" y2="54.5" stroke="url(#paint0_linear_11_112)"/>
<line x1="140.5" y1="54.5" x2="187.5" y2="54.5" stroke="#1F4AA8" stroke-width="3" stroke-linecap="round"/>
<defs>
<linearGradient id="paint0_linear_11_112" x1="44" y1="55" x2="1196" y2="55" gradientUnits="userSpaceOnUse">
<stop stop-opacity="0.68"/>
<stop offset="1" stop-opacity="0"/>
</linearGradient>
<clipPath id="clip0_11_112">
<rect width="34.9296" height="28.9721" fill="white" transform="translate(58.216 136.761)"/>
</clipPath>
<clipPath id="clip1_11_112">
<rect width="34.9296" height="28.9721" fill="white" transform="matrix(-1 0 0 1 510.845 136.761)"/>
</clipPath>
<clipPath id="clip2_11_112">
<rect width="17.9032" height="17.9032" fill="white" transform="translate(425 141)"/>
</clipPath>
</defs>
</svg>
